<svg height='100px' width='100px'  fill="#000000" xmlns="http://www.w3.org/2000/svg" viewBox="0 0 512 512" x="0px" y="0px"><title>Happy-Emoji-Emotion-Face-Expression-Feeling_1</title><path d="M509.31,159C504,120,488.72,88.72,464,66.13,442.36,46.38,414.58,34.56,383.66,32c-29.25-2.46-59.06,3.68-83.94,17.29C281,59.51,266,73.61,256,90.08c-10-16.47-25-30.57-43.72-40.83C187.4,35.64,157.59,29.51,128.34,32,97.42,34.56,69.64,46.38,48,66.13,23.28,88.72,8,120,2.69,159c-5.92,43.29,3.8,87.28,28.89,130.74,19.74,34.16,49,68.07,87,100.78,64.18,55.28,130.3,87.71,133.09,89.06a10,10,0,0,0,8.74,0c2.79-1.35,68.91-33.78,133.09-89.06,38-32.71,67.22-66.62,87-100.78C505.51,246.26,515.23,202.27,509.31,159ZM463.2,279.54c-18.56,32.18-46.31,64.33-82.49,95.54-53,45.73-108.92,76.09-124.71,84.27-15.75-8.15-71.41-38.35-124.41-84-36.26-31.24-64.08-63.42-82.68-95.64-22.83-39.52-31.71-79.23-26.41-118,4.69-34.26,17.81-61.44,39-80.79,18.34-16.75,42-26.78,68.52-29q5.52-.47,11.06-.46a129.26,129.26,0,0,1,61.6,15.36c21.79,11.92,37.34,29.8,43.78,50.33a10,10,0,0,0,19.08,0c6.44-20.53,22-38.41,43.78-50.33,21.47-11.74,47.27-17,72.66-14.9,26.49,2.23,50.18,12.26,68.52,29,21.19,19.35,34.31,46.53,39,80.79C494.79,200.42,486,240.07,463.2,279.54Z"></path><path d="M168.58,214.82a20.71,20.71,0,1,0,20.7,20.7A20.73,20.73,0,0,0,168.58,214.82Z"></path><path d="M341.66,214.82a20.71,20.71,0,1,0,20.71,20.7A20.73,20.73,0,0,0,341.66,214.82Z"></path><path d="M307.72,258.72H204.22a10,10,0,0,0-10,10,61.75,61.75,0,0,0,123.5,0A10,10,0,0,0,307.72,258.72Zm-11.22,20A41.78,41.78,0,0,1,290.65,292H221.29a41.78,41.78,0,0,1-5.85-13.24Z"></path></svg>