<svg height='100px' width='100px'  fill="#000000" xmlns="http://www.w3.org/2000/svg" xmlns:xlink="http://www.w3.org/1999/xlink" version="1.1" x="0px" y="0px" viewBox="0 0 100 100" style="enable-background:new 0 0 100 100;" xml:space="preserve"><g><path d="M82.64268,61.57409c-0.34583,0-0.69165-0.10414-0.99031-0.31635c-0.66021-0.46765-0.90189-1.3381-0.57768-2.08084   c2.2282-5.09501-1.33025-7.87535-12.91534-15.14649c-9.4178-5.91928-10.93864-11.98986-10.55352-16.03954   c0.62288-6.57163,6.77893-12.60291,16.88641-16.54747c0.88618-0.34484,1.87452,0.09333,2.21642,0.97165   c0.34386,0.88028-0.09039,1.87256-0.97066,2.21543c-8.86173,3.45824-14.22789,8.44517-14.72501,13.68361   c-0.42049,4.4348,2.68013,8.86763,8.96587,12.81807c7.99717,5.02034,13.97442,8.77036,15.01385,13.75926   c2.88645-3.53683,4.38763-6.999,4.47606-10.33443c0.09431-3.63311-1.52084-7.19844-4.8042-10.59674   c-1.11411-1.14554-2.2007-2.21838-3.2362-3.23915c-2.63298-2.59761-4.90834-4.84153-6.57851-7.23872   c-0.53838-0.77516-0.34779-1.8421,0.42638-2.38147c0.78007-0.5433,1.84112-0.34779,2.38344,0.42639   c1.48743,2.13782,3.65865,4.27859,6.17177,6.75731c1.05122,1.03747,2.15747,2.12701,3.29122,3.29417   c3.94749,4.08701,5.88686,8.4825,5.76701,13.06762c-0.14344,5.45065-3.19888,10.99169-9.0818,16.46789   C83.48169,61.41887,83.06316,61.57409,82.64268,61.57409z"></path><path d="M74.94221,17.82838c-0.88618,0-1.6348-0.6828-1.70358-1.58077c-0.20238-2.63789,0.30653-4.91325,1.55621-6.95577   c0.44997-0.73193,1.37543-1.01389,2.15353-0.67003c3.17922,1.41179,4.93781,3.56729,5.22862,6.40756   c0.09628,0.94021-0.58751,1.78021-1.52673,1.87747c-0.92547,0.09923-1.77824-0.58652-1.87649-1.52772   c-0.08056-0.77319-0.36744-1.82835-1.75859-2.81768c-0.34583,1.02568-0.46371,2.1447-0.36547,3.42483   c0.0727,0.94217-0.63271,1.76449-1.57389,1.83621C75.03062,17.82642,74.98544,17.82838,74.94221,17.82838z"></path><path d="M84.92197,33.45627c-0.36743,0-0.7388-0.11888-1.05122-0.36253c-0.7447-0.58161-0.87635-1.6574-0.29474-2.4021   c2.16337-2.77249,5.21094-3.99073,9.0484-3.62624c1.47368-0.05698,2.5249-0.41656,3.12617-1.07087   c0.54624-0.59242,0.8233-1.53558,0.82919-2.80785c-6.02834-6.56083-11.87197-9.71745-17.36192-9.35492   c-0.95101,0.04421-1.75662-0.6553-1.81754-1.59747c-0.06091-0.94316,0.65431-1.75663,1.59747-1.81754   c6.72784-0.44603,13.63449,3.25094,20.54704,10.94453c0.25937,0.28982,0.41263,0.66021,0.43424,1.04828   c0.14148,2.52982-0.43424,4.51536-1.70947,5.9016c-1.26344,1.37543-3.16743,2.10835-5.65501,2.1781   c-0.07859-0.00393-0.14933-0.00098-0.22203-0.00884c-2.72729-0.28393-4.66666,0.45586-6.12069,2.31761   C85.93586,33.23031,85.43088,33.45627,84.92197,33.45627z"></path><path d="M88.57277,37.73388c-0.85867,0-1.59943-0.64449-1.69769-1.51789c-0.10807-0.93824,0.5659-1.7861,1.50512-1.89319   c3.60954-0.41165,5.0341-2.13389,4.76294-5.75816c-0.07074-0.94217,0.63467-1.7635,1.57782-1.83424   c0.9294-0.05895,1.76252,0.63565,1.83326,1.5788c0.4087,5.45065-2.35593,8.79394-7.78497,9.41289   C88.70245,37.72995,88.63761,37.73388,88.57277,37.73388z"></path><path d="M59.83207,57.06856c-0.50498,0-1.00603-0.22203-1.344-0.64842c-0.58554-0.74077-0.46175-1.81754,0.27902-2.40505   c0.74077-0.58554,1.11607-1.21431,1.14947-1.92168c0.04519-0.97656-0.58358-2.16336-1.72715-3.25585   c-1.04729-1.04729-2.21445-1.67705-3.60168-1.9541c-0.54428-0.10905-1.0021-0.47551-1.22807-0.98442   c-0.22596-0.50793-0.1906-1.09347,0.09431-1.57095c2.02582-3.38947,2.63887-6.23661,1.82147-8.46089   c-0.86456-2.35789-3.41501-4.27466-7.57668-5.69725C31.22695,24.55819,20.21758,17.3126,14.89661,8.59528   c-0.95494,3.63213,0.22793,8.34889,9.25078,13.75337c0.81151,0.48533,1.0748,1.53656,0.58947,2.34708   c-0.48337,0.81052-1.53459,1.07775-2.3461,0.58849C9.05494,17.29884,10.08651,9.18181,13.3011,3.77831   c0.32617-0.55116,0.91565-0.85965,1.57979-0.83312c0.64056,0.04126,1.20449,0.43817,1.45992,1.02765   c4.00645,9.26061,14.92937,16.98466,32.46223,22.95798c5.18932,1.77333,8.44714,4.38273,9.68503,7.75844   c1.01389,2.76266,0.65235,5.95564-1.07677,9.51408c1.16912,0.51382,2.23017,1.24575,3.17136,2.18792   c1.8588,1.77628,2.84518,3.8689,2.75283,5.86329c-0.08056,1.70358-0.92547,3.2421-2.44238,4.44462   C60.57874,56.94674,60.20344,57.06856,59.83207,57.06856z"></path><path d="M22.12943,32.31564c-0.17095,0-0.34583-0.02653-0.51874-0.08154c-5.72181-1.82245-9.48657-4.66567-11.19211-8.4491   c-1.66428-3.69304-1.34007-8.21331,0.9628-13.43505c0.38316-0.86554,1.39705-1.25263,2.25571-0.87438   c0.86456,0.38119,1.25754,1.39115,0.87635,2.25571c-1.89614,4.29529-2.22231,7.87731-0.97459,10.64685   c1.28898,2.8609,4.35423,5.08027,9.10931,6.59619c0.90189,0.28688,1.39902,1.2487,1.11214,2.14961   C23.52844,31.85094,22.85448,32.31564,22.12943,32.31564z"></path><path d="M29.58036,41.91225c-6.63942,0-14.30452-3.11536-17.71757-15.94424c-0.24168-0.91368,0.30063-1.85094,1.21431-2.09361   c0.90975-0.24856,1.84898,0.30063,2.09459,1.21333c2.62315,9.87071,8.03647,14.20235,16.52487,13.28375   c0.93333-0.09137,1.7861,0.57474,1.88828,1.51396s-0.57572,1.78413-1.51494,1.88729   C31.26428,41.86116,30.43116,41.91225,29.58036,41.91225z"></path><path d="M36.54202,48.40725c-6.58244,0-11.46327-2.84322-14.54424-8.48447c-0.45389-0.82919-0.14737-1.86961,0.68182-2.32252   c0.82526-0.45095,1.86863-0.14737,2.32056,0.68182c2.99648,5.48405,8.007,7.57373,15.33413,6.37514   c0.92154-0.14639,1.81165,0.48042,1.96294,1.41375c0.15326,0.93235-0.47944,1.81165-1.41277,1.96294   C39.36363,48.28346,37.91549,48.40725,36.54202,48.40725z"></path><path d="M44.08727,54.85018c-6.52153,0-11.02903-2.67424-13.42228-7.97163c-0.38905-0.86161-0.0059-1.87452,0.8567-2.26357   c0.86259-0.39003,1.87452-0.00393,2.26357,0.85474c2.07887,4.60967,6.05977,6.45668,12.53414,5.8456   c0.92547-0.09825,1.77628,0.5993,1.86666,1.54049s-0.5993,1.77628-1.54049,1.86666   C45.76137,54.80695,44.9086,54.85018,44.08727,54.85018z"></path><path d="M54.23994,68.36089c-0.19649,0-0.39691-0.03341-0.59144-0.10611c-12.1726-4.48785-17.66059-9.94636-16.30873-16.22227   c0.19846-0.92547,1.10428-1.51888,2.03172-1.31256c0.92351,0.19846,1.51298,1.10821,1.31256,2.03171   c-1.16519,5.41922,7.05009,9.67521,14.14733,12.29246c0.88617,0.32617,1.34007,1.31059,1.01389,2.19676   C55.58984,67.93253,54.93552,68.36089,54.23994,68.36089z"></path><path d="M56.69411,47.48669c-0.63663,0-1.24575-0.35466-1.54245-0.96477c-0.41067-0.85081-0.05698-1.87354,0.79382-2.28617   c3.25192-1.57684,4.99283-3.71269,5.32097-6.52938c0.11003-0.93923,0.98442-1.60337,1.8981-1.50119   c0.93922,0.10905,1.61122,0.95887,1.50119,1.8981c-0.46765,4.01431-2.9002,7.11296-7.22693,9.21148   C57.19909,47.43167,56.94366,47.48669,56.69411,47.48669z"></path><path d="M63.99374,91.28938c-0.14933,0-0.3026-0.01965-0.45586-0.06287c-0.90975-0.24954-1.44421-1.1927-1.1927-2.10442   c1.56407-5.67072,2.56224-11.08994,2.96505-16.10831c0.04126-0.52071,0.32027-0.99425,0.75452-1.28505   c5.34651-3.58006,7.4352-9.1211,6.38398-16.94143c-0.12576-0.93726,0.53053-1.79789,1.46779-1.92365   c0.91564-0.12575,1.79789,0.53053,1.92364,1.46779c1.18092,8.7851-1.23788,15.42845-7.18763,19.76303   c-0.45979,5.00462-1.46975,10.36095-3.01023,15.93932C65.43402,90.79227,64.74434,91.28938,63.99374,91.28938z M58.28765,88.38132   c-0.86456,0-1.60729-0.65235-1.69964-1.53263c-0.89796-8.50608-0.08253-12.70313,0.7054-16.76066   c0.18077-0.92744,1.0807-1.53656,2.00617-1.35382c0.92744,0.18077,1.53459,1.07874,1.35382,2.00617   c-0.74077,3.81192-1.50708,7.75156-0.66217,15.75069c0.09825,0.93922-0.58161,1.78217-1.5228,1.88042   C58.40751,88.3774,58.3466,88.38132,58.28765,88.38132z"></path><path d="M67.0138,74.86276c-0.77614,0-1.47957-0.53249-1.66428-1.32239c-0.21417-0.92154,0.35761-1.84112,1.27719-2.05529   c8.20742-1.91382,12.37498-3.81978,13.93316-6.37219c0.78989-1.29291,0.92351-2.82947,0.42245-4.83564   c-0.22793-0.91565,0.32814-1.84505,1.24575-2.07494c0.92351-0.22989,1.84505,0.32814,2.07494,1.24575   c0.72898,2.91396,0.45979,5.35044-0.8233,7.44896c-2.10835,3.45431-6.76714,5.74932-16.07491,7.92054   C67.27317,74.84901,67.14349,74.86276,67.0138,74.86276z"></path><path d="M22.18838,91.28938c-0.56196,0-1.11214-0.27705-1.44028-0.784c-2.88841-4.47409-3.67241-7.90285-2.39326-10.47885   c1.12982-2.27733,3.77655-3.59185,7.86552-3.90231c5.75718-1.09445,9.33724-5.8397,10.7618-14.48529   c0.15326-0.93333,1.0473-1.56406,1.96491-1.4108c0.93333,0.15326,1.56406,1.03354,1.4108,1.9649   c-1.66231,10.0957-6.26805,15.92165-13.69147,17.3187c-2.11228,0.17094-4.55269,0.6386-5.2463,2.03564   c-0.66807,1.34595,0.11593,3.86694,2.20463,7.10313c0.51088,0.79382,0.28295,1.85291-0.51088,2.36575   C22.82697,91.20097,22.50669,91.28938,22.18838,91.28938z"></path><path d="M55.91994,77.43286c-3.02399,0-6.01458-1.31256-8.92461-3.91803c-2.9061-2.80196-6.16588-4.08111-9.77148-3.90231   c-0.9353,0.06484-1.75073-0.67003-1.80182-1.61318c-0.05305-0.94316,0.67003-1.75073,1.61319-1.80183   c4.5802-0.26526,8.71633,1.36365,12.28853,4.8101c2.85894,2.56027,5.62749,3.47592,8.42945,2.76659   c0.91368-0.23186,1.84701,0.32028,2.08084,1.23593c0.23383,0.91564-0.32028,1.84701-1.23593,2.08083   C57.70407,77.31889,56.81004,77.43286,55.91994,77.43286z"></path><path d="M16.25632,89.86286c-0.52463,0-1.0414-0.23972-1.37543-0.69164c-3.82371-5.15592-4.92995-8.81065-3.94357-13.04306   c0.11593-0.49908,0.45193-0.92154,0.91368-1.14751c4.28939-2.10048,5.86132-4.75703,4.93978-8.47661   C9.07852,69.39246,4.3647,69.52214,2.0186,66.92454c-2.44238-2.70961-1.66035-7.6258,2.4581-15.46186   c0.59144-2.98469-0.32814-4.51339-2.21642-6.25528c-3.38554-3.05347-2.95326-8.12194,1.19859-13.8919   c0.41067-0.57081,1.12196-0.83312,1.81164-0.65923c0.68182,0.17389,1.1868,0.74667,1.27522,1.44421   c0.4873,3.85122,1.94526,4.97023,3.79031,6.38693l0.52856,0.4087c1.60336,1.20744,2.47382,2.85992,2.4974,4.76097   c0.03537,3.01318-2.06119,6.37907-5.91241,9.50327c-4.50553,8.61022-3.3541,10.95632-2.88841,11.47113   c0.48337,0.54231,2.83536,1.99635,12.65007-1.96294c0.42245-0.17291,0.89207-0.16505,1.31256,0.01179   c0.41853,0.17881,0.74863,0.51677,0.91761,0.93923c1.68982,4.22848,2.08477,10.03282-5.319,14.03926   c-0.38316,2.44041,0.20828,5.0282,3.50539,9.47282c0.56393,0.75845,0.40477,1.83129-0.35368,2.39325   C16.96762,89.75283,16.61001,89.86286,16.25632,89.86286z M4.25663,36.65416c-0.97459,2.14764-1.37936,4.50062,0.31046,6.02539   c1.50119,1.38526,2.86091,2.98568,3.33248,5.29739c1.31256-1.55817,2.05333-3.07213,2.03957-4.28055   c-0.00982-0.83508-0.37726-1.49824-1.1593-2.08673l-0.5266-0.40673C6.84442,40.12124,5.30786,38.94131,4.25663,36.65416z"></path><path d="M17.84986,65.96566c-0.79775,0-1.51298-0.56197-1.67607-1.37347c-1.08659-5.41136-0.39298-9.75183,2.06512-12.90158   c2.74891-3.52111,7.67689-5.47325,14.64642-5.79942c0.96477-0.02456,1.74484,0.68575,1.79003,1.62989   c0.04323,0.94316-0.68575,1.74484-1.62891,1.78807c-5.92813,0.27705-10.00138,1.78807-12.10972,4.48785   c-1.81754,2.32645-2.28912,5.73164-1.40687,10.11927c0.18667,0.92743-0.41459,1.82933-1.34007,2.016   C18.07583,65.95387,17.96186,65.96566,17.84986,65.96566z"></path><path d="M37.53037,91.28938c-0.56196,0-1.11214-0.27705-1.44028-0.784c-2.88645-4.47016-3.66652-7.895-2.38933-10.46902   c1.12589-2.26554,3.75298-3.57809,7.81247-3.90427c2.52294-0.51284,4.55858-1.64266,6.22089-3.45234   c0.64056-0.69754,1.72322-0.74077,2.41684-0.10217c0.69558,0.6386,0.74274,1.72126,0.10218,2.41683   c-2.16336,2.35593-4.91423,3.87283-8.17402,4.5134c-0.06681,0.01375-0.13361,0.02357-0.20042,0.0275   c-1.94722,0.14737-4.41515,0.61895-5.11269,2.02386c-0.66611,1.34203,0.11396,3.86104,2.2007,7.09135   c0.51088,0.79382,0.28295,1.85291-0.51088,2.36575C38.16897,91.20097,37.84869,91.28938,37.53037,91.28938z"></path><path d="M31.59635,89.86286c-0.45782,0-0.91565-0.1847-1.25361-0.54624c-3.52308-3.79031-4.33262-8.47858-4.39157-11.74229   c-0.01572-0.94512,0.73684-1.72519,1.68-1.74287c0.01179,0,0.02161,0,0.03144,0c0.93137,0,1.69375,0.74667,1.71143,1.68   c0.04716,2.66834,0.68772,6.47829,3.47592,9.47478c0.64252,0.69165,0.60323,1.77431-0.08842,2.4188   C32.43144,89.71156,32.01291,89.86286,31.59635,89.86286z"></path><path d="M77.68129,91.28938c-0.14934,0-0.3026-0.01965-0.45586-0.06287c-0.90975-0.25151-1.44421-1.1927-1.1927-2.10442   c1.71143-6.19732,2.92771-17.96908,3.25192-21.98141c0.07663-0.94316,0.90582-1.64856,1.84308-1.568   c0.94119,0.07664,1.64463,0.90189,1.568,1.84309c-0.33207,4.10272-1.58176,16.16332-3.36589,22.61804   C79.12157,90.79227,78.43188,91.28938,77.68129,91.28938z M72.20313,88.38132c-0.85081,0-1.58765-0.63271-1.69572-1.49923   c-0.64252-5.14806-0.70344-10.20573-0.16898-14.23968c0.12379-0.93726,0.97852-1.58372,1.91972-1.47172   c0.93726,0.12379,1.5955,0.98245,1.47172,1.91972c-0.49516,3.75494-0.43424,8.50215,0.17291,13.36726   c0.11789,0.93726-0.54821,1.79396-1.48547,1.90989C72.3446,88.3774,72.27386,88.38132,72.20313,88.38132z"></path><path d="M86.12253,20.28157c-0.38708,0-0.77418-0.13066-1.09445-0.39691l-1.02765-0.85572   c-0.72701-0.60421-0.82526-1.68294-0.22007-2.40898c0.60519-0.72898,1.68393-0.82231,2.40897-0.22007l1.02765,0.85572   c0.72701,0.60421,0.82526,1.68294,0.22007,2.40898C87.09908,20.07132,86.61179,20.28157,86.12253,20.28157z"></path><path d="M82.64071,61.57409c-0.30849,0-0.62091-0.08449-0.90189-0.25937c-0.80365-0.49909-1.0473-1.55424-0.54821-2.35593   c2.61333-4.19704,3.50932-8.10131,2.66048-11.6018c-1.00407-4.14006-4.48785-8.01584-10.35506-11.52025   c-0.81151-0.48435-1.07677-1.53459-0.5934-2.3461c0.48533-0.81151,1.53852-1.07579,2.3461-0.59144   c6.68855,3.99171,10.70088,8.58566,11.92895,13.65218c1.07284,4.42595,0.03537,9.2105-3.08294,14.21512   C83.77053,61.28722,83.2125,61.57409,82.64071,61.57409z"></path><path d="M69.24004,31.74484c-0.38316,0-0.77024-0.1287-1.08855-0.39102c-3.4268-2.82554-6.29557-7.96966-0.49319-16.43252   c0.53445-0.7781,1.59943-0.98147,2.37754-0.44309c0.78007,0.53445,0.97852,1.59943,0.44407,2.37852   c-4.70399,6.86146-2.34021,10.05247-0.1513,11.85625c0.72898,0.60126,0.83311,1.68,0.23186,2.40898   C70.2225,31.53263,69.73324,31.74484,69.24004,31.74484z"></path><path d="M78.29041,97.05639c-1.06301,0-2.19676-0.05109-3.35017-0.10414c-0.83901-0.03733-1.61122-0.0727-2.22034-0.0727   c-0.66414,0-1.27326-0.29277-1.71733-0.8233c-1.79002-2.14568-0.49516-9.61823-0.4814-9.69289   c0.17094-0.92744,1.05908-1.53263,1.99045-1.3774c0.92941,0.16898,1.54639,1.05909,1.3774,1.99046   c-0.34583,1.90006-0.51481,5.13037-0.31046,6.49598c0.46568,0.01376,0.97852,0.03733,1.51691,0.06287   c1.35382,0.06091,3.84336,0.17095,5.2522,0.00197c-0.53445-0.50891-1.53656-1.32042-3.41501-2.51704   c-0.79578-0.50695-1.03158-1.56407-0.52267-2.36182c0.50891-0.79382,1.56407-1.03354,2.36182-0.52266   c3.76869,2.39915,6.13641,4.44855,5.44279,6.63942C83.61923,96.65948,81.23777,97.05639,78.29041,97.05639z"></path><path d="M64.42995,97.05639c-1.06302,0-2.19677-0.05109-3.35017-0.10414c-1.73501-0.07663-3.05936,0.12379-3.91213-0.86849   c-1.6466-1.91185-0.76435-8.39015-0.56982-9.6693c0.13951-0.9353,1.0021-1.59158,1.94722-1.43635   c0.9353,0.14147,1.57782,1.01389,1.43635,1.94722c-0.32618,2.15157-0.47355,5.22076-0.26723,6.54707   c0.46568,0.01376,0.98049,0.03733,1.52084,0.06287c1.34989,0.06091,3.83943,0.17291,5.25416,0.00197   c-0.53445-0.50891-1.53656-1.32042-3.41501-2.51704c-0.79579-0.50695-1.03157-1.56407-0.52266-2.36182   c0.50891-0.79382,1.56407-1.03354,2.36182-0.52266c3.76869,2.39915,6.1364,4.44658,5.44279,6.63942   C69.76074,96.65948,67.37928,97.05639,64.42995,97.05639z"></path><path d="M22.62459,97.05639c-1.06301,0-2.19677-0.05109-3.35017-0.10414c-1.65249-0.0727-2.93754,0.1454-3.78245-0.77614   c-1.31256-1.43242-1.1534-5.73557-0.94316-8.17205c0.08253-0.94119,0.91761-1.6348,1.85291-1.55817   c0.94119,0.08252,1.63873,0.91171,1.55817,1.85291c-0.18274,2.08476-0.13362,4.15382,0.02947,5.17557   c0.44603,0.01572,0.93137,0.03733,1.44028,0.06091c1.35186,0.06091,3.84139,0.17095,5.2522,0.00197   c-0.53445-0.50891-1.53656-1.32042-3.41501-2.51704c-0.79579-0.50695-1.03158-1.56407-0.52267-2.36182   c0.50891-0.79382,1.56603-1.03354,2.36182-0.52266c3.76869,2.39915,6.1364,4.44855,5.44279,6.63942   C27.95341,96.65948,25.57195,97.05639,22.62459,97.05639z"></path><path d="M37.96658,97.05639c-1.06301,0-2.19677-0.05109-3.35017-0.10414c-1.65445-0.0727-2.93754,0.1454-3.78245-0.77614   c-1.31256-1.43242-1.1534-5.73557-0.94316-8.17205c0.08253-0.94119,0.93333-1.6348,1.85291-1.55817   c0.94119,0.08252,1.63873,0.91171,1.55817,1.85291c-0.18274,2.08476-0.13361,4.15382,0.02948,5.17557   c0.44603,0.01572,0.93137,0.03733,1.44028,0.06091c1.35186,0.06091,3.83746,0.17291,5.25219,0.00197   c-0.53249-0.50891-1.53656-1.32042-3.41501-2.51508c-0.79578-0.50891-1.03157-1.56603-0.52463-2.36378   c0.51088-0.79382,1.56799-1.02764,2.36378-0.52463c3.76869,2.40112,6.13837,4.44855,5.44476,6.64139   C43.29737,96.65948,40.91591,97.05639,37.96658,97.05639z"></path></g></svg>