<svg height='100px' width='100px'  fill="#000000" xmlns="http://www.w3.org/2000/svg" xmlns:xlink="http://www.w3.org/1999/xlink" version="1.1" x="0px" y="0px" viewBox="0 0 100 100" style="enable-background:new 0 0 100 100;" xml:space="preserve"><path d="M60.6,10.8c-2-3.8-6-6.3-10.6-6.3c-4.5,0-8.5,2.5-10.6,6.3C20.3,15.6,7,32.6,7,52.5c0,23.7,19.3,43,43,43  c23,0,41.8-18.1,43-40.9c0,0,0,0,0,0c0-0.7,0-1.4,0-2v-0.1C93,32.8,79.7,15.7,60.6,10.8z M89,54.1C88.5,64.5,84,73.8,77,80.6  c-7,6.8-16.5,10.9-27,10.9c-21.5,0-39-17.5-39-39c0-18.3,12.4-33.9,30.3-38c0.6-0.2,1.1-0.6,1.4-1.2c1.3-2.9,4.1-4.8,7.3-4.8  c2.2,0,4.2,0.9,5.6,2.3c-0.7,0.3-1.4,0.6-2,1.1C52,13.3,51,15.3,51,17.4c0,2.4,1.2,4.6,3.2,5.9C53,24,51.5,24.5,50,24.5  c-2.5,0-4.8-1.2-6.4-3.2c-0.5-0.6-1.3-0.9-2.1-0.7C27.1,24.4,17,37.5,17,52.5c0,18.2,14.8,33,33,33c18.1,0,32.8-14.6,33-32.6h0  c0-0.1,0-0.3,0-0.4C83,37,72.5,23.8,57.4,20.3C56,20,55,18.8,55,17.4c0-0.9,0.4-1.8,1.1-2.4c0.7-0.6,1.6-0.8,2.5-0.6  C77,18.6,89.7,35.2,89,54.1z M58.6,24.8C70.7,28.5,79,39.6,79,52.5c0,16-13,29-29,29s-29-13-29-29c0-12.7,8.3-23.9,20.4-27.7  c2.2,2.4,5.3,3.7,8.6,3.7C53.4,28.5,56.5,27.1,58.6,24.8z"></path></svg>