<svg height='100px' width='100px'  fill="#000000" xmlns="http://www.w3.org/2000/svg" xmlns:xlink="http://www.w3.org/1999/xlink" version="1.1" x="0px" y="0px" viewBox="0 0 100 100" style="enable-background:new 0 0 100 100;" xml:space="preserve"><g><path d="M66.36244,45.40844c-0.74668,0-1.43244-0.49222-1.64662-1.24577c-0.62485-2.20957,0.00983-4.04875,0.62682-5.82701   c0.30457-0.8852,0.62289-1.80086,0.82134-2.83344c2.19483-11.039,1.19861-19.48626-2.88059-24.43789   c-2.89631-3.51429-7.32724-5.29648-13.17292-5.29648c-0.0393,0-0.08842-0.00589-0.1179,0.00098   c-0.9412,0-1.70753-0.76239-1.71146-1.70458c-0.00393-0.94513,0.76043-1.71441,1.70556-1.71834c0.04126,0,0.08253,0,0.12379,0   c6.91854,0,12.23761,2.20073,15.81379,6.54225c4.82195,5.85354,6.03236,15.0288,3.5978,27.27231   c-0.24365,1.26247-0.61699,2.3422-0.9471,3.29421c-0.57376,1.66135-0.88422,2.65561-0.5659,3.77661   c0.25741,0.90878-0.27116,1.8549-1.18093,2.1123C66.6729,45.38781,66.5157,45.40844,66.36244,45.40844z"></path><path d="M73.94709,91.03619c-0.74275,0-1.42458-0.48534-1.64268-1.23398c-0.26331-0.90583,0.2574-1.85686,1.1652-2.12016   c6.27207-1.82542,9.61836-6.0461,10.53009-13.28492c1.06696-8.28613-0.10414-14.94923-3.29913-18.76513   c-1.85097-2.21055-4.32482-3.43864-7.35672-3.65085c-6.37228,1.83525-10.78749,1.71342-13.48338-0.36351   c-1.89813-1.45995-2.81968-3.77464-2.73716-6.88219c0.02358-0.92941,0.78401-1.66626,1.7095-1.66626   c0.01375,0,0.02947,0.00098,0.04519,0.00098c0.94513,0.02456,1.68984,0.81054,1.66626,1.75567   c-0.05305,1.97869,0.40674,3.31386,1.40297,4.08018c1.22612,0.94317,4.0851,1.66037,10.71872-0.29081   c0.18274-0.05502,0.36352-0.0727,0.56787-0.06877c4.09296,0.20042,7.58268,1.89223,10.0919,4.88876   c3.86896,4.62349,5.27585,12.02147,4.06938,21.39421c-1.08858,8.63589-5.33087,13.91567-12.97054,16.13801   C74.2654,91.01457,74.10428,91.03619,73.94709,91.03619z"></path><path d="M73.15129,51.96739c-0.12772,0-0.25741-0.01376-0.38709-0.04323c-3.44846-0.7958-6.1306-3.33253-7.96978-7.5424   c-0.37923-0.86555,0.01768-1.87455,0.88226-2.2528c0.86654-0.37531,1.87455,0.01474,2.25378,0.88324   c1.40099,3.20579,3.23428,5.03122,5.604,5.5755c0.91959,0.21221,1.49532,1.1318,1.2831,2.05336   C74.63481,51.43097,73.92941,51.96739,73.15129,51.96739z"></path><path d="M85.98428,73.46967c-0.58555,0-1.15538-0.30064-1.47566-0.841c-0.47945-0.81348-0.21025-1.86275,0.60323-2.34416   c6.34674-3.74713,10.34734-8.74789,11.26694-14.08269c0.74078-4.30517-0.62485-8.68403-3.95148-12.66204   c-2.40508-2.84425-4.97915-4.15486-7.61019-3.89745c-3.96131,0.39102-8.16234,4.25212-11.82498,10.87297   c-0.45586,0.82527-1.49335,1.12984-2.32648,0.66808c-0.82528-0.45783-1.12591-1.49924-0.66808-2.32648   c4.28552-7.74381,9.29414-12.10793,14.48354-12.61979c2.63891-0.25937,6.60415,0.41656,10.56545,5.09999   c3.99668,4.78069,5.62168,10.11942,4.70406,15.44635c-1.09251,6.34084-5.67277,12.18259-12.89783,16.44847   C86.57965,73.39304,86.27901,73.46967,85.98428,73.46967z"></path><path d="M85.98428,67.36658c-0.55411,0-1.09644-0.26723-1.42654-0.7624c-0.52267-0.78597-0.31046-1.849,0.47552-2.37363   c7.30759-4.87108,6.19151-8.77933,4.40342-11.64028c-1.23595-1.98066-2.31273-2.60157-2.82361-2.56031   c-0.72507,0.07663-1.99245,1.33419-3.18517,4.62939c-0.32028,0.89011-1.30668,1.34795-2.1909,1.02766   c-0.89011-0.32225-1.34991-1.30275-1.02766-2.1909c1.55623-4.29927,3.58994-6.61004,6.04414-6.86843   c2.15946-0.22793,4.22461,1.16521,6.0854,4.14896c3.71766,5.94589,1.89813,11.43199-5.4075,16.30306   C86.64056,67.27423,86.31046,67.36658,85.98428,67.36658z"></path><path d="M68.34113,83.52032c-3.15372,0-5.44876-0.89601-6.61004-2.62319c-0.66218-0.9864-1.48549-3.10067,0.43229-6.20919   c1.37349-2.27933,2.96705-3.30699,4.74335-3.07906c2.58979,0.34779,4.66673,3.43667,6.34871,9.44151   c0.13165,0.46765,0.05894,0.96871-0.20239,1.37938c-0.25937,0.40871-0.68183,0.6897-1.16128,0.77026   C70.61456,83.41421,69.42773,83.52032,68.34113,83.52032z M66.443,75.00036c-0.10807,0-0.62092,0.24168-1.35188,1.45995   c-0.00393,0.00589-0.00786,0.01376-0.01179,0.01965c-0.31635,0.51089-0.99819,1.77827-0.50696,2.50726   c0.48141,0.72114,2.10641,1.24577,4.80034,1.07286c-1.33222-3.93577-2.55638-5.01059-2.92186-5.05971   C66.44693,75.00036,66.44497,75.00036,66.443,75.00036z"></path><path d="M62.42471,97.65409c-0.72506,0-1.38135-0.46176-1.61911-1.16325c-0.25937-0.76632,0.05305-1.60928,0.75061-2.02191   c1.66626-0.98247,3.12228-2.07301,4.33857-3.2225c-2.24985-0.32028-4.63528-1.32043-6.81243-3.81983   c-3.14586-3.67639-4.48988-7.89511-3.79429-11.89178c0.60127-3.4465,2.69392-6.34871,5.89284-8.17216   c2.93758-1.66627,5.85747-2.00423,8.4394-0.97657c3.41898,1.35973,6.13256,5.03809,7.84599,10.63226   c0.0334,0.11201,0.05698,0.22597,0.06681,0.3419c1.11018,11.95663-4.04188,18.96948-14.90207,20.28206   C62.56226,97.65016,62.49348,97.65409,62.42471,97.65409z M71.61078,79.80069c0.78401,0,1.49139,0.54233,1.66823,1.34009   c0.6445,2.89435-0.10217,6.00877-1.99244,8.93652c2.39133-2.74501,3.33056-6.80457,2.85505-12.22386   c-1.37742-4.40931-3.42881-7.35081-5.78674-8.28809c-1.61124-0.64253-3.45632-0.37923-5.48217,0.77222   c-2.29504,1.30865-3.79036,3.36201-4.21282,5.78477c-0.51874,2.97295,0.55215,6.19347,3.01421,9.06817   c2.28326,2.62319,4.74532,2.89435,6.9598,2.73519c1.2438-2.04549,1.72914-4.13422,1.30472-6.04218   c-0.20435-0.92155,0.3753-1.83721,1.29882-2.04156C71.3632,79.81445,71.48699,79.80069,71.61078,79.80069z"></path><path d="M75.82753,79.23086c-0.33011,0-0.66415-0.09628-0.95889-0.29474c-0.78205-0.53053-0.9864-1.59356-0.45587-2.37757   c1.4796-2.18304,2.91007-5.58434,1.3224-9.38649c-0.91763-2.10445-3.17533-4.20693-12.49305-1.52479   c-4.17745,1.21432-10.14496,0.68183-14.78613-8.76165c-0.41657-0.84885-0.06681-1.87259,0.78204-2.29111   c0.84492-0.41067,1.87258-0.06484,2.29111,0.78204c4.34251,8.84417,9.17625,7.44317,10.76195,6.98338   c5.75726-1.65644,13.72703-3.09477,16.58994,3.46811c1.73504,4.15191,1.16718,8.51799-1.63482,12.65221   C76.91414,78.96756,76.37575,79.23086,75.82753,79.23086z"></path><path d="M75.48563,45.46542c-0.75454,0-1.4462-0.50499-1.65055-1.26935c-2.02388-7.56991-0.53249-13.12675,4.83374-18.01845   c4.63332-4.22363,4.53703-10.45542,3.63906-14.94038c-0.15523-0.77615,0.24168-1.55721,0.95889-1.88928   c0.71917-0.32814,1.57195-0.12969,2.06122,0.49222c4.54293,5.74449,5.98323,11.75719,4.16566,17.38574l-0.58359,1.72816   c-1.20844,3.55457-2.16339,6.36246-2.07497,8.92375c0.03341,0.94415-0.70541,1.73602-1.65054,1.76942   c-0.01965,0-0.0393,0.00098-0.06091,0.00098c-0.91763,0-1.67609-0.72801-1.70753-1.65251   c-0.11004-3.18713,0.98444-6.4106,2.25378-10.143l0.57179-1.69377c0.85081-2.63301,0.8017-5.34855-0.14344-8.11616   c-0.43818,4.31205-2.17322,7.97567-5.12258,10.6637c-4.41914,4.02811-5.5313,8.2596-3.83556,14.60536   c0.24365,0.9137-0.29867,1.85097-1.2104,2.0956C75.78037,45.44675,75.633,45.46542,75.48563,45.46542z"></path><path d="M92.94604,90.56264c-3.6312,0-7.76739-1.85293-10.59886-8.74199c-0.35958-0.8744,0.05698-1.87455,0.93138-2.23217   c0.86457-0.36155,1.87258,0.05502,2.23216,0.93138c1.67609,4.07527,3.67836,5.77691,5.57845,6.36639   c-0.90191-1.56998-1.60143-3.64495-2.11034-6.24456c-0.44014-2.40115-1.75272-4.24819-4.01829-5.66491   c-0.79973-0.50106-1.04338-1.55623-0.54232-2.35792c0.50302-0.79973,1.55622-1.04142,2.35792-0.54233   c3.08102,1.92564,4.9536,4.59402,5.5647,7.92851c0.76239,3.89057,2.01405,6.38211,3.52312,6.9932   c0.69363,0.28099,1.12395,0.97854,1.06303,1.72325s-0.59734,1.36563-1.32633,1.53069   C94.7695,90.44081,93.87349,90.56264,92.94604,90.56264z"></path><path d="M33.6227,45.40844c-0.16505,0-0.33207-0.02358-0.4991-0.07467c-0.90387-0.27607-1.41279-1.23201-1.1377-2.13588   c0.34386-1.12492,0.05109-2.07301-0.53839-3.78938c-0.32225-0.94022-0.68773-2.00522-0.92941-3.25786   c-2.43456-12.24056-1.22416-21.42074,3.59976-27.27625c3.57029-4.3317,8.86972-6.5285,15.75681-6.5285   c0.04126,0,0.08253,0,0.12379,0c0.94513,0.00393,1.70949,0.7732,1.70556,1.71834c-0.00393,0.94415-0.70934,1.73012-1.71735,1.70458   c-0.03733-0.00098-0.07467-0.00098-0.11003-0.00098c-5.81621,0-10.22945,1.77728-13.1179,5.28273   c-4.08117,4.9536-5.07739,13.40577-2.88256,24.44182c0.19846,1.02766,0.50892,1.93055,0.80759,2.80495   c0.61895,1.79988,1.25756,3.66067,0.57573,5.89874C35.03548,44.93391,34.35562,45.40844,33.6227,45.40844z"></path><path d="M26.09503,91.03619c-0.15719,0-0.31832-0.02161-0.47748-0.06877C17.9936,88.74901,13.73363,83.47315,12.592,74.8353   c-1.20844-9.37077,0.19846-16.76286,4.06741-21.38242c2.51708-3.00832,6.02842-4.70602,10.15085-4.90644   c0.19256,0,0.3812,0.01376,0.5659,0.06877c6.60807,1.94136,9.45527,1.23398,10.67942,0.30064   c1.00605-0.76633,1.47763-2.10838,1.44226-4.10475c-0.01572-0.94514,0.73685-1.72423,1.68199-1.74093   c0.99229-0.05404,1.72325,0.73685,1.74093,1.68002c0.05305,3.11835-0.88422,5.43501-2.79021,6.8871   c-2.69785,2.05532-7.09538,2.16536-13.43229,0.34386c-3.06137,0.21222-5.55487,1.44619-7.41566,3.66853   c-3.19302,3.81197-4.36412,10.46917-3.29716,18.74351c0.95692,7.24079,4.32089,11.4654,10.58707,13.28886   c0.9078,0.26331,1.42851,1.21433,1.16521,2.12016C27.51961,90.55085,26.83778,91.03619,26.09503,91.03619z"></path><path d="M26.89083,51.96739c-0.77615,0-1.47763-0.5325-1.6643-1.32044c-0.21614-0.91959,0.35565-1.84114,1.27524-2.05729   c2.35792-0.55411,4.22264-2.42375,5.54505-5.55684c0.36548-0.87145,1.37742-1.27917,2.24002-0.91271   c0.87047,0.36744,1.27917,1.37054,0.91173,2.24101c-1.7429,4.14012-4.48005,6.75348-7.91476,7.56107   C27.15216,51.95167,27.02051,51.96739,26.89083,51.96739z"></path><path d="M14.00086,73.46967c-0.29671,0-0.59734-0.07663-0.87047-0.23972C5.90729,68.94443,1.33292,63.08892,0.24631,56.74022   c-0.90976-5.31712,0.71131-10.64013,4.68637-15.39527c3.97899-4.70209,7.95995-5.37213,10.60868-5.10588   c5.13437,0.5158,10.26678,4.99977,14.44816,12.62372c0.45587,0.8292,0.1513,1.86865-0.67594,2.32256   c-0.83313,0.45586-1.86865,0.1513-2.32255-0.67594c-3.62531-6.60709-7.81258-10.46524-11.79157-10.86511   c-2.66642-0.26428-5.23066,1.04927-7.64753,3.90334c-3.30502,3.95345-4.66868,8.31757-3.93183,12.61488   c0.91369,5.34462,4.91037,10.35913,11.25515,14.12395c0.81348,0.48141,1.08071,1.53265,0.59931,2.34417   C15.15427,73.17101,14.58444,73.46967,14.00086,73.46967z"></path><path d="M14.00086,67.36658c-0.32618,0-0.65629-0.09235-0.9471-0.28688C5.74813,62.20863,3.9286,56.72253,7.64822,50.77468   c1.89813-2.9926,3.98489-4.38279,6.14828-4.14503c2.45224,0.26723,4.48398,2.57701,6.03628,6.86646   c0.32225,0.88815-0.13754,1.86865-1.02766,2.1909c-0.88226,0.32029-1.86865-0.13755-2.1909-1.02766   c-1.18879-3.28537-2.42669-4.5449-3.18909-4.62742c-0.70148-0.08842-1.81167,0.88029-2.88256,2.56621   c-1.7822,2.85308-2.89828,6.76134,4.40931,11.63242c0.78597,0.52464,0.99819,1.58766,0.47551,2.37363   C15.09729,67.09935,14.55497,67.36658,14.00086,67.36658z"></path><path d="M31.68723,83.51835c-1.08072,0-2.26361-0.10611-3.53688-0.31832c-0.47944-0.08056-0.90191-0.36155-1.16128-0.77026   c-0.26134-0.41067-0.33404-0.91173-0.20239-1.37938c1.68002-5.99502,3.7432-9.08389,6.3094-9.43954   c1.77237-0.24562,3.38165,0.78793,4.78265,3.07512c0,0.00393,0.00197,0.0059,0.00393,0.00786   c1.89223,3.12621,1.05517,5.24245,0.38906,6.22491C37.10849,82.63216,34.82327,83.51835,31.68723,83.51835z M30.66743,80.0581   c2.64087,0.16898,4.28749-0.34779,4.77283-1.06107c0.49909-0.73489-0.17095-2.01012-0.48338-2.52887   c-0.75257-1.22612-1.27328-1.4678-1.38332-1.4678c-0.00196,0-0.00393,0-0.00786,0   C33.55196,75.00232,32.25314,75.32261,30.66743,80.0581z"></path><path d="M37.61741,97.65409c-0.06878,0-0.13755-0.00393-0.20632-0.01179c-10.8602-1.30472-16.01422-8.31757-14.90207-20.28206   c0.00982-0.112,0.03144-0.22401,0.06484-0.33208c1.67216-5.58631,4.37394-9.26663,7.81062-10.64012   c2.58978-1.03355,5.50378-0.69755,8.42368,0.97657c3.22249,1.8215,5.3348,4.72764,5.9341,8.18396   c0.69362,3.99471-0.67004,8.21146-3.83555,11.8741c-2.13981,2.50136-4.51149,3.50348-6.75741,3.82376   c1.21433,1.14949,2.67035,2.24003,4.33661,3.2225c0.69559,0.41264,1.00998,1.25559,0.75061,2.02191   C38.99876,97.19233,38.34247,97.65409,37.61741,97.65409z M25.9005,77.84755c-0.50106,5.67473,0.47748,9.80698,3.02993,12.53039   c-0.02555-0.04323-0.04716-0.08842-0.06681-0.13361c-1.96886-2.97688-2.7568-6.15418-2.10052-9.10355   c0.20435-0.92352,1.12001-1.50317,2.04157-1.29882c0.92352,0.20435,1.50317,1.12001,1.29882,2.04156   c-0.42443,1.90795,0.06091,3.99668,1.30472,6.04218c2.20073,0.1572,4.66082-0.11004,6.90282-2.73519   c2.48957-2.87862,3.57421-6.09129,3.0594-9.05835c-0.4205-2.42276-1.93153-4.48005-4.25409-5.79263   c-2.01799-1.15538-3.8552-1.41672-5.46252-0.77222C29.28412,70.51244,27.24452,73.45199,25.9005,77.84755z"></path><path d="M24.21459,79.23086c-0.54822,0-1.08661-0.2633-1.41868-0.7506c-2.83933-4.19121-3.40523-8.56319-1.63679-12.64828   c2.78628-6.59039,10.80125-5.14027,16.58798-3.474c4.26784,1.2497,7.86956-1.09447,10.70496-6.96962   c0.41067-0.85475,1.43244-1.20844,2.28326-0.79776c0.85081,0.41067,1.20844,1.43244,0.79776,2.28325   c-4.81409,9.98187-11.30427,9.77948-14.74094,8.77147c-9.34719-2.69392-11.58525-0.59538-12.48716,1.53265   c-1.30472,3.01225-0.85671,6.164,1.32437,9.3806c0.53053,0.78401,0.32618,1.84704-0.45587,2.37757   C24.87873,79.13458,24.5447,79.23086,24.21459,79.23086z"></path><path d="M24.4995,45.46542c-0.1513,0-0.30456-0.01965-0.45586-0.0619c-0.90977-0.25053-1.44619-1.19173-1.19665-2.10346   c1.73307-6.30253,0.62092-10.53009-3.83752-14.59357c-2.91989-2.69589-4.64314-6.37523-5.08525-10.70988   c-0.93924,2.7735-0.9805,5.50869-0.1179,8.17806l0.67397,2.06613c1.18093,3.57323,2.20073,6.66015,2.14767,9.72544   c-0.01768,0.93433-0.78008,1.68198-1.71146,1.68198c-0.00982,0-0.01965,0-0.02947-0.00098   c-0.94513-0.01572-1.6977-0.79482-1.68198-1.73995c0.04323-2.48466-0.84689-5.18055-1.97279-8.59364l-0.6838-2.09069   c-1.82739-5.65901-0.40871-11.67171,4.10868-17.3828c0.48927-0.61797,1.34205-0.8184,2.05336-0.49516   c0.7172,0.32814,1.11805,1.10331,0.96871,1.87749c-0.85868,4.49774-0.92352,10.74525,3.64495,14.962   c5.40357,4.92609,6.89495,10.48686,4.82391,18.02336C25.93784,44.96731,25.25011,45.46542,24.4995,45.46542z"></path><path d="M7.0273,90.56068c-0.92548,0-1.8156-0.11987-2.64284-0.30849c-0.72899-0.16505-1.26542-0.78597-1.32633-1.53069   c-0.06091-0.74471,0.36941-1.44226,1.06303-1.72325c1.56212-0.63271,2.81379-3.11639,3.52116-6.9932   c0.60717-3.30894,2.4994-5.97536,5.62364-7.92851c0.80562-0.50302,1.86079-0.25544,2.35792,0.54233   c0.50106,0.80169,0.25741,1.85686-0.54232,2.35792c-2.3088,1.44423-3.63906,3.2893-4.07331,5.64526   c-0.46962,2.578-1.16914,4.66673-2.08873,6.25439c1.89813-0.5993,3.90826-2.30486,5.61578-6.37032   c0.36744-0.87047,1.36759-1.27328,2.24199-0.9137c0.87047,0.36745,1.27917,1.36956,0.91369,2.24199   C14.79862,88.71167,10.65064,90.56068,7.0273,90.56068z"></path><path d="M49.99257,68.73811c-3.29323,0-6.5845-0.97264-9.45723-2.91989c-0.78401-0.53053-0.98836-1.59356-0.45783-2.37757   c0.52857-0.78008,1.59553-0.98246,2.37757-0.45586c4.5783,3.1046,10.49668,3.1046,15.07498,0   c0.78598-0.52857,1.849-0.32618,2.37757,0.45586c0.53053,0.78401,0.32618,1.84704-0.45783,2.37757   C56.57706,67.76546,53.2858,68.73811,49.99257,68.73811z"></path><path d="M45.36318,32.30036c-1.35188,0-2.71358-0.59734-3.88075-1.76648c-1.52086-1.42163-3.22642-1.88339-5.49396-1.46682   c-0.93138,0.17193-1.82346-0.44015-1.99441-1.37054c-0.17291-0.92843,0.44014-1.8215,1.36956-1.99343   c3.35807-0.62583,6.12863,0.15523,8.49834,2.37168c1.24577,1.24872,2.05139,0.69755,2.31666,0.51973   c0.78205-0.53348,1.84311-0.33208,2.37757,0.44997c0.53053,0.78106,0.33011,1.84507-0.45193,2.37757   C47.24166,32.01053,46.30439,32.30036,45.36318,32.30036z"></path><path d="M40.61197,34.57379c-0.33994,0-0.68576-0.04519-1.03552-0.14639c-2.73519-0.78597-3.68229-4.31696-4.1578-6.90478   c-0.16898-0.92941,0.44604-1.8215,1.37546-1.99146c0.92745-0.17488,1.82149,0.44407,1.99244,1.37447   c0.56983,3.11835,1.38528,4.13226,1.73503,4.23345c0.26723,0.07762,1.14359-0.21516,2.61926-1.82935   c0.63467-0.69755,1.71932-0.74569,2.41687-0.10709s0.74471,1.7203,0.10611,2.41785   C44.95054,32.40057,42.96203,34.57379,40.61197,34.57379z"></path><path d="M54.67501,32.30036c-1.0591,0-2.02192-0.36646-2.76859-0.89994c-0.76829-0.54822-0.9471-1.61714-0.39888-2.38641   c0.54822-0.76731,1.61911-0.94808,2.3874-0.3979c0.65629,0.46667,1.41868,0.29474,2.26557-0.52267   c2.41294-2.25673,5.11473-3.01225,8.5121-2.39132c0.92942,0.16898,1.54641,1.0591,1.37742,1.9895   c-0.16898,0.9304-1.05517,1.55721-1.99048,1.37644c-2.3029-0.41755-3.96327,0.02849-5.54111,1.50612   C57.22353,31.82386,55.88541,32.30036,54.67501,32.30036z"></path><path d="M59.42032,34.57379c-2.35595,0-4.36805-2.16536-5.09114-2.94347c-0.64253-0.69264-0.60323-1.77532,0.08842-2.41883   c0.69362-0.64155,1.77434-0.60422,2.41883,0.08842c1.51104,1.62598,2.40312,1.91876,2.68017,1.8382   c0.04126-0.01277,1.02766-0.34288,1.73897-4.23247c0.16898-0.9304,1.06499-1.55033,1.99244-1.37447   c0.92941,0.16997,1.54444,1.06205,1.37546,1.99146c-0.47355,2.58094-1.41869,6.10407-4.14994,6.90085   C60.11787,34.52663,59.76419,34.57379,59.42032,34.57379z"></path></g></svg>