<svg height='100px' width='100px'  fill="#000000" xmlns="http://www.w3.org/2000/svg" xmlns:xlink="http://www.w3.org/1999/xlink" version="1.1" x="0px" y="0px" viewBox="0 0 100 100" style="enable-background:new 0 0 100 100;" xml:space="preserve"><g><path d="M38.40719,64.61588c-0.15139,0-0.30474-0.01966-0.45417-0.06095c-0.59573-0.16712-1.05384-0.64882-1.1895-1.25438   c-1.16787-5.22003-2.5874-6.17556-2.99439-6.34464c-0.74516-0.30671-1.1659-1.09906-1.00665-1.88747   c0.96536-4.78748,0.62326-8.02862-0.96339-9.12768c-0.30082-0.20841-0.52692-0.50922-0.64095-0.85722   c-0.88672-2.68571-0.11207-4.46897,0.69404-5.49135c2.32001-2.95015,8.13577-3.93517,18.27698-3.10547   c0.92604,0.0757,1.61615,0.88868,1.53947,1.8157c-0.07471,0.92506-0.85329,1.61024-1.81472,1.54045   c-11.37396-0.92604-14.50204,0.74909-15.3573,1.83144c-0.2438,0.31163-0.51905,0.83559-0.27132,1.89435   c2.26496,1.97103,2.9531,5.67027,2.05066,11.01809c1.24258,1.02434,2.2571,2.78794,3.06517,5.32423   c2.90395-2.06442,6.48817-3.02781,10.70942-2.88428c0.92997,0.03342,1.65546,0.81397,1.62401,1.74197   c-0.03342,0.9339-0.86705,1.66333-1.74197,1.62401c-4.29596-0.14156-7.79957,1.09512-10.31226,3.70809   C39.2998,64.435,38.85939,64.61588,38.40719,64.61588z"></path><path d="M49.61599,72.78114c-3.29324,0-6.05759-0.75302-8.22425-2.2394c-0.53281-0.36373-0.80807-1.00075-0.7137-1.63777   c0.36766-2.45174,2.2453-5.55033,9.109-6.38593c0.9575-0.10814,1.7636,0.54461,1.87567,1.46672   c0.11207,0.92407-0.54462,1.7636-1.46672,1.87567c-2.20991,0.26936-4.82877,0.92997-5.81576,2.52842   c1.51391,0.7196,3.38761,1.05974,5.57983,1.02238c0.0118,0,0.02163,0,0.03146,0c0.91621,0,1.66529,0.73336,1.68299,1.65154   c0.0177,0.92997-0.72157,1.69675-1.65154,1.71445C49.88535,72.77917,49.74969,72.78114,49.61599,72.78114z"></path><path d="M49.99152,100c-0.46597,0-0.92997-0.19268-1.26421-0.57018c-3.28734-3.73364-6.54715-6.29942-9.69883-8.78065   c-6.38593-5.02931-11.90088-9.37049-14.14421-20.83096c-1.61024-8.21442-3.00815-17.04029-0.90638-26.64869   c0.20054-0.90933,1.09906-1.47852,2.00543-1.28485c0.90834,0.19858,1.48442,1.09611,1.28584,2.00445   c-1.96611,8.97923-0.62326,17.41385,0.91817,25.28224c2.00347,10.23361,6.82241,14.02821,12.92326,18.83142   c3.11825,2.45567,6.65332,5.23772,10.14514,9.2014c0.61343,0.69798,0.54658,1.76164-0.15139,2.37703   C50.78387,99.86237,50.38671,100,49.99152,100z"></path><path d="M25.79655,67.1266c-0.05112,0-0.10027-0.00196-0.15139-0.0059C12.48007,65.94104,5.07962,61.01789,3.64633,52.483   c-0.33424-3.40137,0.96143-6.75163,3.73168-9.80304c7.29624-8.03747,22.82853-12.648,42.61352-12.648   c0.92997,0,1.68299,0.754,1.68299,1.68397c0,0.92997-0.75302,1.68398-1.68299,1.68398   c-18.5601,0-33.5576,4.31463-40.12049,11.54403c-2.11554,2.32886-3.11432,4.78257-2.89018,7.09668   c1.13248,6.71624,7.51841,10.70155,18.96315,11.72589c0.92604,0.08258,1.61025,0.90048,1.52767,1.82652   C27.39303,66.46796,26.6577,67.1266,25.79655,67.1266z"></path><path d="M25.62549,45.2133c-0.5741,0-1.13248-0.29295-1.44706-0.82183c-0.47777-0.79824-0.21627-1.83144,0.58197-2.30822   c3.19887-1.90713,6.35644-3.34043,9.65755-4.38247c0.89655-0.28115,1.83242,0.21234,2.11357,1.09807   c0.27919,0.88672-0.21234,1.83242-1.09906,2.11259c-3.04944,0.96241-5.97501,2.29248-8.94581,4.06395   C26.21533,45.13662,25.91845,45.2133,25.62549,45.2133z"></path><path d="M61.57586,64.61588c-0.45221,0-0.89262-0.18089-1.21309-0.51512c-2.54808-2.65032-5.92979-3.89487-10.31226-3.70809   c-0.87099-0.0059-1.71052-0.69404-1.74198-1.62401c-0.03146-0.92997,0.69601-1.70855,1.62401-1.74197   c4.26646-0.15336,7.82709,0.82773,10.72907,2.89805c0.83953-2.58544,1.85404-4.33724,3.10056-5.34979   c-0.92604-5.4363-0.25363-9.05395,2.04672-11.01023c0.23004-1.04892-0.05112-1.57191-0.29688-1.88255   c-0.86312-1.08628-4.02266-2.76632-15.38286-1.8393c-0.96536,0.06488-1.74001-0.61539-1.81472-1.54045   c-0.07668-0.92702,0.61343-1.74001,1.53946-1.8157c10.13924-0.82675,15.95107,0.15532,18.29271,3.09958   c0.81004,1.01943,1.59845,2.79876,0.74123,5.4825c-0.116,0.36078-0.348,0.67143-0.66257,0.88377   c-1.60435,1.08234-1.93269,4.23402-0.94767,9.11588c0.16122,0.79628-0.26936,1.59452-1.02435,1.89533   c-0.50922,0.20448-1.82455,1.23079-3.03961,6.35841c-0.14156,0.5977-0.59966,1.0735-1.19343,1.23471   C61.87274,64.59622,61.72331,64.61588,61.57586,64.61588z"></path><path d="M50.36705,72.78114c-0.1337,0-0.26936-0.00197-0.40699-0.00393c-0.92997-0.0177-1.66923-0.78448-1.65154-1.71445   c0.0177-0.91817,0.76678-1.65154,1.68299-1.65154c0.11207,0.0059,0.25166,0.00197,0.37749,0.00197   c2.04869,0,3.8005-0.34407,5.23379-1.02435c-0.98699-1.59845-3.60585-2.25906-5.81576-2.52842   c-0.92211-0.11207-1.57879-0.9516-1.46672-1.87567c0.11207-0.92211,0.92014-1.57092,1.87567-1.46672   c6.8637,0.8356,8.74133,3.93419,9.109,6.38593c0.09437,0.63702-0.18088,1.27404-0.7137,1.63777   C56.42464,72.02812,53.66029,72.78114,50.36705,72.78114z"></path><path d="M49.99152,100c-0.39519,0-0.79234-0.13763-1.11282-0.41879c-0.69797-0.61539-0.76482-1.67905-0.15139-2.37703   c3.49378-3.96564,7.03671-6.74966,10.16087-9.20534c6.11264-4.80124,10.93945-8.59387,12.90556-18.82159   c1.5434-7.87035,2.88822-16.30104,0.97519-25.29797c-0.19267-0.90933,0.38733-1.80391,1.29764-1.99659   c0.90638-0.19464,1.80293,0.38733,1.99757,1.29665c2.04279,9.61625,0.64292,18.43427-0.96535,26.64082   c-2.20205,11.45654-7.72879,15.79771-14.13045,20.82703c-3.15758,2.48124-6.42525,5.04898-9.71259,8.78262   C50.92149,99.80732,50.45749,100,49.99152,100z"></path><path d="M74.41457,45.2133c-0.29295,0-0.58983-0.07668-0.86115-0.2379c-2.88625-1.72232-5.91603-3.08876-9.00283-4.06395   c-0.88671-0.28017-1.37824-1.22587-1.09906-2.11259c0.28115-0.88573,1.22096-1.38021,2.11357-1.09807   c3.33453,1.05285,6.60417,2.52744,9.71456,4.38247c0.79824,0.47678,1.05974,1.50997,0.58197,2.30822   C75.54705,44.92035,74.98867,45.2133,74.41457,45.2133z"></path><path d="M74.24352,67.1266c-0.86115,0-1.59648-0.65865-1.67513-1.53356c-0.08258-0.92604,0.60163-1.74395,1.52766-1.82652   c11.40739-1.02041,17.77366-5.00572,18.92187-11.84189c0.22217-2.19811-0.76089-4.64199-2.8548-6.96397   c-6.53143-7.23922-21.55055-11.56074-40.1716-11.56074c-0.92997,0-1.68299-0.75401-1.68299-1.68398   c0-0.92997,0.75302-1.68397,1.68299-1.68397c19.55888,0,35.51192,4.73833,42.6725,12.67356   c2.75059,3.04846,4.02463,6.39183,3.68842,9.67131c-1.44903,8.64303-8.83178,13.56814-21.95754,14.74387   C74.34379,67.12464,74.29463,67.1266,74.24352,67.1266z"></path><path d="M33.8989,34.19914c-0.06685,0-0.13566-0.00393-0.20448-0.01278c-0.92407-0.11207-1.58076-0.9516-1.46869-1.87469   c1.36645-11.21864,3.79853-18.65054,7.4378-22.71941c0.61932-0.69502,1.68103-0.75302,2.37703-0.1337   c0.69207,0.62031,0.75302,1.68398,0.13173,2.37703c-3.12022,3.49083-5.34193,10.51673-6.60417,20.88306   C35.46392,33.57293,34.73843,34.19914,33.8989,34.19914z"></path><path d="M23.05382,25.92377c-0.37553,0-0.74712-0.12583-1.0499-0.36865c-0.50136-0.39912-0.73139-1.04892-0.59573-1.67513   C25.19295,6.58313,34.87212-1.37274,50.16454,0.19326c0.92407,0.09634,1.59649,0.92309,1.50211,1.84815   c-0.09634,0.92407-0.9221,1.59648-1.84814,1.50211C37.30027,2.24195,29.34341,8.06754,25.53112,21.29456   c4.30972-1.80587,7.90181-2.81842,10.70351-3.01405c0.92211-0.07373,1.73411,0.63407,1.79703,1.56109   c0.06488,0.92801-0.63309,1.73215-1.56109,1.79703c-3.05337,0.21431-7.32574,1.60238-12.70109,4.1249   C23.54142,25.87069,23.29762,25.92377,23.05382,25.92377z"></path><path d="M66.08415,34.19914c-0.83953,0-1.56503-0.62621-1.66923-1.48048c-0.10617-0.86902-0.21038-1.79703-0.31851-2.76829   c-1.1777-10.51182-2.959-26.398-14.10489-26.398c-0.92997,0-1.68299-0.754-1.68299-1.68397s0.75302-1.68398,1.68299-1.68398   c14.15601,0,16.21846,18.39888,17.45121,29.39141c0.10814,0.95946,0.21037,1.87665,0.31458,2.73584   c0.11207,0.92309-0.54461,1.76262-1.46868,1.87469C66.21981,34.19521,66.151,34.19914,66.08415,34.19914z"></path><path d="M50.01315,55.40661c-1.00272,0-2.0133-0.29099-2.92361-0.87099c-0.78448-0.49939-1.01451-1.53947-0.51512-2.32394   c0.49939-0.78251,1.5375-1.01648,2.32394-0.51512c0.68617,0.43648,1.50997,0.44827,2.15683,0.01966   c0.77465-0.51905,1.81865-0.31065,2.33377,0.46597c0.51709,0.77268,0.30868,1.81865-0.46597,2.33377   C52.03431,55.10973,51.02766,55.40661,50.01315,55.40661z"></path><path d="M42.57338,45.95551c-2.12733,0-3.79459-1.36645-3.79459-3.11137c0-0.25264,0-0.92506,0.55051-1.47557   c0.65668-0.65668,1.72231-0.65668,2.37899,0c0.32441,0.32244,0.4876,0.74417,0.4935,1.16689   c0.19858,0.058,0.58197,0.05505,0.77858-0.00098c0.00983-0.61539,0.34014-1.21014,0.91817-1.4972   c0.81987-0.40797,1.80096-0.12583,2.22367,0.69109c0.0983,0.19071,0.30278,0.58787,0.30278,1.11577   C46.425,44.58906,44.73414,45.95551,42.57338,45.95551z"></path><path d="M57.40966,45.95551c-2.16272,0-3.7946-1.33794-3.7946-3.11137c0-0.25756,0-0.94177,0.57214-1.49523   c0.66848-0.64783,1.73608-0.62915,2.38096,0.04031c0.31065,0.32244,0.46793,0.73827,0.47187,1.15411   c0.19661,0.05309,0.58393,0.04817,0.78251-0.00983c0.0118-0.62129,0.34997-1.21997,0.9339-1.50211   c0.8238-0.4001,1.79899-0.10715,2.21384,0.71763c0.10224,0.20448,0.29099,0.58393,0.29099,1.09512   C61.26128,44.58906,59.57042,45.95551,57.40966,45.95551z"></path></g></svg>