<svg height='100px' width='100px'  fill="#000000" xmlns="http://www.w3.org/2000/svg" xmlns:xlink="http://www.w3.org/1999/xlink" version="1.1" x="0px" y="0px" viewBox="0 0 100 100" style="enable-background:new 0 0 100 100;" xml:space="preserve"><g><path d="M78.02287,19.91977c-0.74133,0-1.4217-0.49553-1.62424-1.24669c-0.65874-2.45209-0.61352-6.00044,3.35466-8.97657   c0.41097-0.30971,0.93993-0.41392,1.44333-0.28021c0.4975,0.13175,0.90847,0.48472,1.11298,0.95862   c0.98319,2.27118,1.27422,4.8442,0.86324,7.64827c-0.13371,0.91929-0.98319,1.55541-1.90936,1.42268   c-0.92027-0.1347-1.55738-0.99008-1.4217-1.91035c0.15928-1.09724,0.18681-2.14042,0.07866-3.12066   c-0.53486,1.00187-0.61352,2.10305-0.2694,3.38317c0.24187,0.89864-0.29102,1.82186-1.18967,2.06372   C78.31586,19.90109,78.16838,19.91977,78.02287,19.91977z"></path><path d="M92.2379,37.72837c-0.2576,0-0.51519-0.05899-0.75313-0.17796c-2.01948-1.00974-3.38808-2.0185-4.50697-2.98006   c-2.36556,0.43064-5.10278,0.03343-8.15068-1.18672c-0.86324-0.3451-1.28405-1.32534-0.93797-2.18859   c0.34412-0.86423,1.32928-1.28798,2.18859-0.93797c2.74704,1.09921,5.06935,1.38925,6.89809,0.85931   c0.56828-0.16616,1.17-0.02163,1.60064,0.37165c1.05988,0.96452,2.1119,1.79925,3.62602,2.63594   c0.12192-0.06784,0.24383-0.13568,0.36771-0.20254c2.1414-1.17197,2.38916-1.52198,2.23972-2.29281   c-0.36378-1.86119-2.6153-4.69476-4.42241-6.97282l-0.96156-1.21818c-0.14355-0.18189-0.2458-0.39229-0.30283-0.61646   c-1.15427-4.48632-3.17178-5.99257-7.18912-5.37513c-0.92027,0.14158-1.77762-0.48963-1.9192-1.40892   c-0.14158-0.9183,0.48766-1.7786,1.40794-1.92018c5.59438-0.86226,9.24989,1.66651,10.86823,7.51554l0.73347,0.9301   c2.24561,2.82865,4.56792,5.75366,5.08901,8.42008c0.66267,3.38317-1.99195,4.83437-3.92885,5.89327   c-0.35788,0.19664-0.72166,0.39524-1.07561,0.6086C92.84158,37.64677,92.54073,37.72837,92.2379,37.72837z"></path><path d="M18.77752,61.53152c-0.71183,0-1.37451-0.4562-1.60261-1.17197c-1.66356-5.18734-1.20146-10.21146,1.30372-14.14621   c2.40096-3.77252,6.56774-6.21379,11.72952-6.87351c4.15891-0.52994,8.48694-0.34903,12.67338-0.17599   c3.65158,0.15534,7.42902,0.31265,11.08454-0.00295c0.92027-0.0875,1.74222,0.60565,1.82088,1.53379   c0.08062,0.92617-0.60761,1.74222-1.53378,1.82088c-3.86789,0.33232-7.75348,0.17009-11.51125,0.01278   c-4.23167-0.17796-8.23131-0.34314-12.10509,0.1524c-4.21397,0.53781-7.43689,2.38523-9.31676,5.33973   c-1.95852,3.0774-2.29084,7.09473-0.93993,11.31264c0.28513,0.88488-0.20254,1.83268-1.08938,2.11584   C19.12164,61.50399,18.94663,61.53152,18.77752,61.53152z"></path><path d="M73.74401,100h-6.67786c-0.76689,0-1.43546-0.51716-1.63013-1.25849c-0.20254-0.77869-0.82982-1.50232-1.91723-2.21219   c-0.14551-0.09635-0.27726-0.2163-0.38738-0.35198c-2.1591-2.67429-0.48766-18.88717-0.20647-19.97262   c1.09922-4.08419,0.44244-7.64336-0.03736-10.24292c-0.17304-0.93797-0.32249-1.74812-0.35592-2.43636   c-0.03933-1.54362-0.09832-2.78441-0.13765-3.5631c-0.02163-0.46603-0.0354-0.78459-0.0354-0.91634   c0-0.9301,0.75116-1.68126,1.68126-1.68126h0.00197c0.92814,0,1.68127,0.75313,1.68323,1.68126   c0,0.11012,0.01573,0.37165,0.03343,0.75313c0.03933,0.79639,0.10029,2.06471,0.13765,3.60046   c0.02163,0.42278,0.15337,1.13068,0.30282,1.95066c0.5093,2.75098,1.27619,6.90989-0.01769,11.71575   c-0.42867,1.73632-1.2054,14.43723-0.43064,16.90701c1.12478,0.80032,1.93886,1.6793,2.45602,2.66052h1.98015   c-0.56631-0.58598-1.10904-1.27225-1.43349-2.0942c-2.63496-6.43403-1.1405-12.17195,0.30283-17.71914   c0.30479-1.17393,0.61154-2.34787,0.87504-3.52967c0.33429-1.55148,1.79925-3.54147,4.16088-6.66016   c1.98409-2.61923,4.69968-6.20789,4.82159-7.82623c0.05309-0.87308-0.0059-2.90829-0.07275-5.26402   c-0.35592-12.52-0.14355-19.74452,1.99982-22.06289c0.63318-0.68529,1.69896-0.72461,2.37933-0.09439   c0.6843,0.63121,0.72559,1.69699,0.09438,2.37933c-1.61834,1.75008-1.24669,14.77938-1.10707,19.68356   c0.07275,2.53468,0.12978,4.53843,0.06686,5.58651c-0.19861,2.633-2.77261,6.03289-5.49803,9.63137   c-1.49642,1.97623-3.35859,4.43618-3.55523,5.34858c-0.27529,1.23293-0.59188,2.44619-0.9065,3.65553   c-1.36468,5.24632-2.65463,10.19966-0.43654,15.6151c0.23006,0.58009,0.91437,1.20736,1.52002,1.76189   c0.95173,0.87111,2.02931,1.8602,2.02931,3.27207C75.42724,99.24687,74.67411,100,73.74401,100z"></path><path d="M23.80165,100h-6.73488c-0.82982,0-1.53575-0.60368-1.66357-1.42367c-0.29103-1.8543-1.2054-3.05577-1.94083-4.02126   c-0.60172-0.79049-1.17-1.53969-1.2172-2.48945c-0.00983-0.17698,0.00983-0.35199,0.05506-0.5211   c0.58402-2.17483,0.79442-4.75276,1.01466-7.48015c0.29299-3.61422,0.59385-7.3484,1.84841-10.41596   c0.99499-2.23382,3.18555-3.7853,4.40471-4.5168c0.7374-0.44833-0.26743-2.90829-1.00286-4.70557   c-0.57418-1.40794-1.17-2.86503-1.44136-4.2592c-0.17698-0.91241,0.41884-1.79531,1.33321-1.97425   c0.92027-0.16124,1.79531,0.42081,1.97425,1.33321c0.20647,1.06775,0.7374,2.36753,1.25259,3.62602   c1.25849,3.0833,2.8257,6.91776-0.37558,8.86449c-1.48266,0.88684-2.61727,1.98998-3.0479,2.95548   c-1.03629,2.53468-1.31748,6.00732-1.58884,9.36395c-0.20844,2.5799-0.42474,5.24436-0.99499,7.6001   c0.10422,0.10225,0.30676,0.36968,0.46603,0.58009c0.70004,0.9183,1.68913,2.22005,2.26332,4.11761h2.32624   c-0.97533-1.3981-1.50035-1.87593-1.67733-2.01358c-0.46997-0.34019-1.05399-0.76689-1.02449-5.30335   c0.01966-3.06167,0.40704-10.4199,3.54343-12.63799c8.13692-5.74579,15.44205-11.75311,15.44205-22.0275   c0-0.9301,0.75313-1.68323,1.68323-1.68323s1.68323,0.75312,1.68323,1.68323c0,11.87699-8.33159,18.75346-16.86572,24.77847   c-2.00179,1.41383-2.38916,10.62048-1.98605,12.89165c1.02449,0.9714,2.26135,2.68609,3.71844,5.13424   c0.30872,0.5211,0.31659,1.16804,0.01573,1.69306C24.96575,99.67554,24.40729,100,23.80165,100z"></path><path d="M34.64628,100h-6.79191c-0.72756,0-1.37254-0.46603-1.60064-1.1582c-0.62531-1.90936-1.77958-3.14622-2.70575-4.13925   c-0.74526-0.79836-1.38827-1.48856-1.56918-2.39113c-0.03146-0.15731-0.03933-0.31659-0.02556-0.47587   c0.18681-2.15516-0.19467-4.82945-0.59778-7.66105c-0.27923-1.95066-0.56632-3.96621-0.66267-5.86575   c-0.04719-0.92813,0.66661-1.71862,1.59671-1.76582c0.86325-0.06489,1.71862,0.6666,1.76582,1.59671   c0.08849,1.74419,0.36575,3.68304,0.63318,5.55898c0.38935,2.73524,0.79246,5.55701,0.65088,8.00124   c0.12782,0.12192,0.43457,0.45227,0.67054,0.70593c0.86914,0.93011,2.1119,2.26332,2.99481,4.22774h2.07651   c-0.86325-0.98122-1.53182-1.6321-1.99392-1.94083c-1.74222-1.06775-2.25545-8.85661-2.27708-9.18893   c-0.28906-4.58955,0.35985-7.45655,1.98802-8.7642c3.95834-3.17572,7.91668-6.70342,10.04825-10.96852   c0.41491-0.82982,1.4276-1.16607,2.25938-0.75313c0.83178,0.41688,1.16804,1.4276,0.75313,2.25938   c-2.42259,4.84518-6.69556,8.67374-10.95279,12.08936c-1.50232,1.20736-0.57418,10.41596,0.38541,12.76973   c1.15034,0.88094,2.57204,2.45406,4.68001,5.14211c0.39721,0.50732,0.46997,1.19556,0.18877,1.77565   C35.87921,99.63229,35.29126,100,34.64628,100z"></path><path d="M52.91798,70.34881c-7.43689,0-13.20234-1.60064-17.46154-4.82159c-0.74133-0.56042-0.88684-1.61637-0.32642-2.35966   c0.56042-0.73936,1.61637-0.88684,2.35966-0.32642c5.55112,4.20021,14.36841,5.1952,26.9533,3.04987   c0.91634-0.14552,1.78745,0.45817,1.94279,1.37647c0.15731,0.91634-0.46014,1.78548-1.37647,1.94279   C60.5692,69.9693,56.544,70.34881,52.91798,70.34881z"></path><path d="M83.73327,100h-6.62083c-0.67054,0-1.27619-0.39721-1.54362-1.01269c-0.43261-0.99303-1.33321-3.05774-2.25938-3.63783   c-0.51126-0.31659-0.81212-0.8829-0.79245-1.48266c0.11798-3.51197-0.29103-14.83641-2.57597-18.31102   c-0.51126-0.77869-0.29692-1.82284,0.4798-2.33214c0.78066-0.51716,1.82481-0.29692,2.33214,0.4798   c2.93189,4.4578,3.14033,16.14012,3.13639,19.41219c1.02646,0.96747,1.77369,2.3518,2.31641,3.51787h2.1886   c-0.77476-0.81212-1.59671-1.71272-2.09618-2.68412c-2.24955-4.20807-2.54254-30.26863-0.36378-33.17299   c0.55649-0.74133,1.6144-0.89471,2.3577-0.33625c0.74329,0.55846,0.89471,1.61441,0.33625,2.3577   c-1.08938,2.34787-1.38237,25.78133,0.65088,29.58826c0.34608,0.67251,1.12871,1.48463,1.82088,2.20039   c1.17983,1.22506,2.19843,2.28297,2.31051,3.58472c0.04129,0.46997-0.11799,0.936-0.43654,1.28405   C84.6555,99.80336,84.2052,100,83.73327,100z"></path><path d="M8.64471,73.72707c-0.08849,0-0.17501-0.00196-0.2635-0.00393c-1.68323-0.05899-5.72613-0.84555-6.89613-6.87843   c-0.11405-0.59582,0.09832-1.20736,0.56042-1.60064c0.45817-0.39524,1.09135-0.50536,1.66946-0.30283   c1.22703,0.4503,1.80908,0.38148,1.95656,0.27333c0.64694-0.45424,0.63318-3.37039,0.62531-5.29942   c-0.01573-3.37629-0.03343-7.20288,1.63997-10.29012c2.52878-4.68591,7.59813-7.07998,13.9535-6.52546   c0.92617,0.07866,1.61244,0.89373,1.53378,1.81989c-0.07866,0.92617-0.87898,1.62719-1.82088,1.53477   c-2.89453-0.23891-8.15462,0.0472-10.70306,4.77341c-1.26636,2.33214-1.25062,5.6986-1.23686,8.67178   c0.0177,3.54147,0.03146,6.60117-2.05291,8.0681c-0.55845,0.39524-1.20146,0.62138-1.93493,0.67841   c0.58205,0.9478,1.47086,1.66357,2.82374,1.71075c2.57007,0.10815,5.43707-2.14336,6.14103-4.78029   c0.42277-1.66553,0.62924-3.78923,0.84555-6.03682c0.19664-2.02145,0.39918-4.11172,0.78262-6.11744   c0.17698-0.91437,1.07168-1.50626,1.97032-1.33715c0.91437,0.17501,1.51215,1.05792,1.33714,1.97033   c-0.35592,1.85234-0.54862,3.86395-0.7374,5.80871c-0.23007,2.37933-0.44834,4.62888-0.93993,6.56184   C16.8072,70.51202,12.69744,73.72707,8.64471,73.72707z"></path><path d="M88.69643,19.63464c-0.27726,0-0.55846-0.06882-0.81606-0.21335c-0.81408-0.45227-1.10511-1.47774-0.65284-2.28986   c1.01859-1.82874,2.01752-3.69288,2.99678-5.58651c-1.26242,1.61146-2.55041,3.34778-3.86002,5.207   c-0.53486,0.75903-1.58295,0.94288-2.3459,0.40606c-0.76099-0.53584-0.9419-1.58589-0.40704-2.34689   c4.32999-6.14202,8.2903-10.84169,12.10706-14.36546c0.58794-0.54174,1.47675-0.59582,2.12763-0.12782   c0.6489,0.468,0.87897,1.3283,0.55059,2.05783c-2.54648,5.6455-5.31516,11.16123-8.22738,16.39379   C89.8625,19.32297,89.28831,19.63464,88.69643,19.63464z"></path><path d="M58.96069,47.1464c-0.22417,0-0.44834-0.04523-0.65677-0.13371c-2.32427-0.98615-4.60922-3.91017-7.19305-9.2027   c-0.24187-0.49651-0.22417-1.08053,0.04523-1.5623c0.27136-0.48177,0.75903-0.80032,1.30962-0.85243   c5.99159-0.56828,10.25472-4.23855,13.03716-11.21923c2.46388-4.68197,6.1548-6.97478,10.82497-6.76635   c0.45817,0.01966,0.88881,0.22515,1.19164,0.57025c0.30282,0.34412,0.45227,0.79737,0.41294,1.25456   C76.55791,35.46113,70.28906,44.83982,59.30088,47.111C59.18879,47.1346,59.07474,47.1464,58.96069,47.1464z M55.18326,38.36647   c1.86217,3.42348,3.20128,4.78324,4.01733,5.3181c8.70521-2.07159,13.68607-9.54781,15.18642-22.80914   c-2.46192,0.40999-4.38112,1.96442-5.83231,4.71049C65.74277,32.66787,61.23384,36.99491,55.18326,38.36647z"></path></g></svg>