<svg height='100px' width='100px'  fill="#000000" xmlns="http://www.w3.org/2000/svg" xmlns:xlink="http://www.w3.org/1999/xlink" version="1.1" x="0px" y="0px" viewBox="0 0 100 100" style="enable-background:new 0 0 100 100;" xml:space="preserve"><g><path d="M37.61687,100c-6.17513,0-12.38171-1.96991-17.57188-4.79305c-6.03947-3.3343-10.02647-7.47267-11.86073-12.30307   c-1.98367-5.23146-1.31327-10.91903,1.9935-16.90739c4.8422-8.74072,14.30836-12.885,27.40766-12.00817   c0.9417,0.06488,1.65535,0.88076,1.59244,1.82442c-0.06291,0.9417-0.88272,1.65338-1.82442,1.59244   c-8.1352-0.54851-18.93627,0.78442-24.17952,10.24863c-2.79758,5.06435-3.39917,9.78859-1.78707,14.0351   c1.53739,4.05187,5.00341,7.58866,10.30367,10.516c4.6515,2.52628,20.72924,9.82987,31.84683-2.66586   c12.09271-13.57899,11.57959-28.67178-1.40371-41.40933c-5.37498-5.37596-8.32984-8.3318-6.94972-13.058   c0.26541-0.90533,1.21694-1.42435,2.12325-1.16386c0.90828,0.2654,1.42926,1.21595,1.16386,2.12325   c-0.77263,2.6462,0.95743,4.55025,6.0729,9.6667c14.23956,13.96825,14.82345,31.21378,1.55116,46.11783   C50.83411,97.73126,44.2422,100,37.61687,100z"></path><path d="M28.80733,81.53557c-0.60749,0-1.23267-0.03735-1.87161-0.11403c-3.58201-0.43448-6.51721-3.42276-6.82783-6.95169   c-0.13369-1.53345,0.06094-6.72953,8.2453-9.22632c0.91025-0.2772,1.85981,0.23396,2.13701,1.1383   c0.27524,0.90435-0.23395,1.86178-1.1383,2.13702c-3.91819,1.19531-6.04341,3.25565-5.83305,5.65022   c0.16908,1.92075,1.84998,3.61346,3.82775,3.85331c2.77399,0.33028,4.99358-0.23199,6.61157-1.67698   c2.0741-1.84998,3.19864-5.22752,3.16719-9.50942c-0.05701-7.87766-2.38473-15.99124-6.9163-24.11661   c-3.94768-5.75637-5.30223-11.34564-4.05581-16.95457c0.20446-0.92303,1.12257-1.50495,2.04265-1.29951   c0.92204,0.20446,1.50397,1.11962,1.29951,2.04265c-1.02821,4.63184,0.15728,9.34624,3.62329,14.4106   c4.89528,8.76628,7.36847,17.4323,7.43138,25.89385c0.03735,5.35532-1.45285,9.53498-4.31138,12.08681   C34.2924,80.63908,31.74843,81.53557,28.80733,81.53557z"></path><path d="M70.25794,96.99796c-6.04144,0-12.01407-1.70843-16.83267-4.10299c-0.84537-0.42072-1.19138-1.44892-0.77066-2.29626   c0.41875-0.84734,1.44499-1.19334,2.29626-0.77066c9.30692,4.6279,23.35578,6.47985,32.3167-3.54269   c1.91682-2.13309,2.60491-4.56893,2.05247-7.24462c-0.79229-3.81989-4.06564-7.55721-8.33967-9.52122   c-4.68295-2.13111-10.16016-3.1888-17.23766-3.32249c-0.94367-0.01966-1.69664-0.80016-1.67894-1.74579   c0.01769-0.93383,0.78049-1.67894,1.71236-1.67894c0.00983,0,0.02163,0,0.03342,0   c4.75569,0.09044,11.85876,0.5662,18.59419,3.63509c5.23539,2.40439,9.26564,7.08931,10.26829,11.93937   c0.77459,3.74715-0.21233,7.28197-2.8546,10.22307C84.32646,94.71349,77.24502,96.99796,70.25794,96.99796z"></path><path d="M71.26453,78.25435c-2.52824,0-5.21574-0.42858-8.09195-1.28574c-0.90631-0.2713-1.4214-1.2248-1.15206-2.13112   c0.27131-0.90631,1.2189-1.41354,2.13111-1.15206c5.55978,1.65929,10.22897,1.5079,14.28281-0.4679   c0.84537-0.41285,1.87357-0.05898,2.2884,0.79033c0.41285,0.8493,0.06094,1.87357-0.79032,2.28839   C77.25288,77.60165,74.38059,78.25435,71.26453,78.25435z"></path><path d="M26.52287,97.25156c-0.68612,0-1.37422-0.02359-2.07017-0.07274c-0.94367-0.06684-1.65535-0.88665-1.58851-1.82835   c0.06684-0.94563,0.92794-1.63176,1.82836-1.58851c9.67849,0.70382,18.1892-4.13445,22.78565-12.89286   c5.08008-9.6785,4.07547-21.70436-2.50072-29.92411C40.23555,45.0451,33.95819,36.36926,34.2177,29.21311   c0.03539-0.94563,0.83751-1.69958,1.77331-1.64847c0.94367,0.03342,1.68287,0.82768,1.64749,1.77233   c-0.24378,6.70889,7.47464,16.31071,10.01074,19.46511c7.52969,9.41505,8.65226,22.62444,2.86049,33.65749   C45.59086,91.82941,36.72628,97.25156,26.52287,97.25156z"></path><path d="M63.77416,66.19703c-0.23985,0-0.48363-0.05112-0.71562-0.15728c-0.85913-0.39713-1.23267-1.41354-0.83751-2.27267   c1.13044-2.4496,3.5014-4.26027,6.50148-6.55652c1.2248-0.93581,2.57346-1.96794,3.99486-3.16522   c3.36575-2.8251,4.30156-6.32552,4.24454-9.45142c-1.68288,2.65898-4.10889,4.52076-7.19547,5.48802   c-5.05058,1.6239-7.59652,3.15932-8.77021,5.29634c-0.45218,0.82964-1.49414,1.1324-2.32378,0.6763   c-0.82964-0.45414-1.1324-1.49611-0.67629-2.32378c2.02888-3.69407,6.35796-5.50473,10.73618-6.91236   c3.78844-1.18745,6.17906-4.11282,7.1188-8.69944c0.15335-0.75493,0.79426-1.31327,1.56295-1.36537   c0.77263-0.04129,1.47842,0.41777,1.73006,1.1442c2.61279,7.48348,1.07343,14.32311-4.22291,18.76818   c-1.46465,1.23463-2.8546,2.29823-4.11872,3.26549c-2.62457,2.00726-4.69672,3.59184-5.47131,5.27078   C65.04221,65.82742,64.42294,66.19703,63.77416,66.19703z"></path><path d="M51.65196,38.07081c-0.14548,0-0.2949-0.00295-0.44824-0.00885c-5.61876-0.21134-15.1675-4.2642-17.33793-10.13362   c-0.32832-0.88666,0.12582-1.87161,1.01247-2.19993c0.89452-0.32439,1.87358,0.12582,2.19993,1.01248   c1.17958,3.19471,6.29308,6.09059,10.73422,7.30163c1.54525,0.42072,2.76023,0.57996,3.64295,0.60159   c-3.15736-2.96567-5.07615-5.46049-5.83895-7.5867c-0.15924-0.43841-0.12975-0.92303,0.07667-1.34079   c0.2084-0.41679,0.57603-0.73233,1.02034-0.87191c2.83493-0.8896,6.07486-1.15501,9.88295-0.80408   c0.4797-0.81686,0.55441-1.34768,0.44234-1.57769c-0.07274-0.14843-0.87879-1.44892-6.88091-1.5777   c-0.51115-0.01081-0.99282-0.25066-1.30934-0.65467c-0.31652-0.40302-0.43645-0.92696-0.32439-1.42828   c0.13565-0.61044,0.05308-1.08227-0.26541-1.52855c-0.61731-0.86601-2.71698-2.43879-9.84167-3.24582   c-0.26737-0.03047-0.52492-0.12386-0.74904-0.27229c-2.48696-1.63766-4.64167-3.36968-6.45626-5.18526   c1.04,2.49875,2.65997,4.5532,4.88152,6.20462c0.61732,0.45807,0.85323,1.271,0.578,1.9876   c-0.27523,0.7166-0.97905,1.16386-1.75954,1.09112c-3.87494-0.36567-7.47071-1.76643-10.75388-4.18261   c2.37097,3.34904,5.81732,5.70231,10.39411,7.11978c0.72741,0.22609,1.21891,0.9073,1.20514,1.6701   c-0.01573,0.7628-0.53474,1.42337-1.27198,1.61996c-1.85785,0.49543-3.58791,0.85127-5.20394,1.06949   c0.289,0.41286,0.39516,0.94858,0.24182,1.46957c-0.26541,0.90435-1.21694,1.42238-2.12522,1.15894   c-2.24318-0.66057-4.11872-1.67108-5.57747-3.00401c-0.55637-0.50821-0.71562-1.31917-0.39123-1.9994   c0.32045-0.67924,1.0459-1.06851,1.7969-0.95841c1.47448,0.21822,3.15932,0.21921,5.04666,0.00393   c-5.65021-3.19274-9.25384-8.29936-10.74012-15.24319c-0.16711-0.78639,0.23592-1.58458,0.96922-1.91683   c0.72741-0.33323,1.59834-0.10911,2.07804,0.53573c2.73664,3.67146,5.79176,6.27244,9.12606,7.77936   c-2.04068-3.07085-3.14949-6.818-3.30677-11.20212c-0.02949-0.79425,0.49149-1.50299,1.25822-1.71335   c0.76476-0.20938,1.57671,0.13664,1.95614,0.83259c1.89717,3.48764,5.12726,6.77672,9.60182,9.78072   c6.36976,0.76476,10.1346,2.23335,11.83124,4.61119c0.48953,0.68613,0.79425,1.44499,0.91025,2.25006   c4.56106,0.29883,7.17188,1.40174,8.15879,3.42571c0.81588,1.67304,0.37943,3.66261-1.30148,5.91365   c-0.36764,0.48953-0.97119,0.75002-1.57278,0.67629c-2.80545-0.33127-5.3101-0.30473-7.4825,0.07569   c0.97119,1.44597,2.76023,3.48567,6.00605,6.2862c0.57603,0.49837,0.75494,1.31622,0.43841,2.00923   C55.74709,36.91678,54.58519,38.07081,51.65196,38.07081z"></path><path d="M44.60197,19.74498H43.8608c-0.94563,0-1.71236-0.76673-1.71236-1.71236c0-0.94563,0.76673-1.71236,1.71236-1.71236   h0.74117c0.94563,0,1.71236,0.76673,1.71236,1.71236C46.31434,18.97825,45.54761,19.74498,44.60197,19.74498z"></path></g></svg>