<svg height='100px' width='100px'  fill="#000000" xmlns="http://www.w3.org/2000/svg" xmlns:xlink="http://www.w3.org/1999/xlink" version="1.1" x="0px" y="0px" viewBox="0 0 100 100" style="enable-background:new 0 0 100 100;" xml:space="preserve"><g><path d="M47.59018,100c-1.27029,0-2.27118-0.11208-3.1128-0.34216c-0.89668-0.24383-1.42564-1.17-1.1818-2.06667   c0.2458-0.89864,1.18377-1.4276,2.06668-1.1818c0.93207,0.25366,2.36164,0.29102,4.50304,0.11798   c0.9183-0.08062,1.73829,0.61548,1.81301,1.54165c0.07669,0.92617-0.61351,1.7383-1.54165,1.81302   C49.181,99.96067,48.33938,100,47.59018,100z"></path><path d="M47.87531,62.17251c-3.67125,0-7.07508-0.61745-10.14462-1.84644c-0.86325-0.34608-1.28405-1.32535-0.93797-2.18859   c0.34412-0.86324,1.32535-1.28405,2.18859-0.93797c3.21112,1.28602,6.87844,1.79532,10.90954,1.53969   c0.93404-0.08652,1.73043,0.64104,1.78942,1.56918c0.06096,0.92814-0.64104,1.72846-1.56918,1.78942   C49.356,62.14891,48.61074,62.17251,47.87531,62.17251z"></path><path d="M44.92179,99.71684c-0.0295,0-0.05703,0-0.08652-0.00197c-0.92814-0.04523-1.64391-0.83572-1.59671-1.76582   c0.09832-1.99392,0.33035-3.97997,0.70593-6.05649c-1.44727-6.9158-1.54952-12.30962-0.30479-16.05559   c-2.83751-7.74365-3.74794-13.04505-2.78441-16.19521c0.27136-0.89077,1.21523-1.38631,2.10207-1.11888   c0.89078,0.27333,1.39024,1.21326,1.11888,2.10207c-0.42474,1.38631-0.60565,5.12638,2.93386,14.6162   c0.14552,0.38934,0.14158,0.81802-0.00983,1.20343c-1.25456,3.19145-1.15034,8.26081,0.30676,15.0724   c0.0472,0.21827,0.05113,0.44244,0.00983,0.66267c-0.38345,2.04701-0.61745,3.98981-0.71577,5.93851   C46.55586,99.01681,45.81256,99.71684,44.92179,99.71684z"></path><path d="M43.64953,34.15044c-1.35681,0-2.78638-0.33625-3.74598-1.50134c-1.59475-1.93985-1.15231-5.25027,1.39417-10.41795   c0.40901-0.83375,1.4217-1.17689,2.25348-0.76591c0.83572,0.41097,1.17787,1.41973,0.7669,2.25447   c-2.73919,5.56096-1.85234,6.74178-1.81301,6.78897c0.21237,0.25563,1.2113,0.51323,3.63193-0.1406   c0.88881-0.2458,1.82088,0.28808,2.06471,1.18574c0.24187,0.89766-0.28906,1.82186-1.1877,2.06471   C46.36709,33.79354,45.04764,34.15044,43.64953,34.15044z"></path><path d="M43.03405,42.58135c-0.83965,0-1.56525-0.62728-1.66947-1.48168c-0.43457-3.58768-0.59582-6.65231-0.46603-8.86253   c0.05506-0.92715,0.85931-1.63407,1.77958-1.58295c0.92814,0.05506,1.638,0.85145,1.58295,1.77959   c-0.08259,1.404-0.07276,3.97703,0.44637,8.26081c0.11208,0.92322-0.54666,1.76189-1.46889,1.87397   C43.16973,42.57742,43.10091,42.58135,43.03405,42.58135z"></path><path d="M50.00295,17.92377c-0.02753,0-0.05506-0.00098-0.08259-0.00197c-3.14622-0.1524-6.94726-2.17286-7.19699-10.93707   c-0.02556-0.9301,0.70594-1.70486,1.63604-1.73141c0.95173,0.04129,1.70486,0.70594,1.73042,1.63506   c0.21434,7.48704,3.05774,7.6237,3.99178,7.66893c0.9301,0.04523,1.64587,0.83473,1.60064,1.76385   C51.63898,17.22177,50.89569,17.92377,50.00295,17.92377z"></path><path d="M27.96756,61.87362c-0.10422,0-0.2104-0.00983-0.31266-0.0295c-2.74508-0.51913-3.91115-1.94476-4.40472-3.0479   c-0.99106-2.21416-0.33232-5.23257,2.01162-9.22041c0.72363-4.94646,3.23668-10.16527,7.6709-15.92876   c1.63997-10.5261,4.96711-16.16375,10.16428-17.23051c0.09439-0.01868,0.18877-0.03048,0.28316-0.03343   c0.81409-0.02556,1.64194-0.25563,2.18269-1.74616c0.31856-0.87308,1.28602-1.32535,2.15714-1.00778   c0.87504,0.31757,1.32535,1.28405,1.00876,2.15812c-0.87898,2.41965-2.67823,3.81873-5.07526,3.95442   c-4.48141,1.04514-6.52842,8.6305-7.45656,14.84036c-0.04326,0.28709-0.15928,0.55846-0.33822,0.78656   c-4.26904,5.47345-6.72703,10.51725-7.30515,14.99178c-0.0295,0.23007-0.10619,0.45227-0.22614,0.65284   c-2.52288,4.18645-2.24169,5.87558-2.00375,6.40847c0.2281,0.50733,0.82392,0.86915,1.77369,1.07758   c0.44834-0.03933,0.64104-0.20057,0.77083-0.35592c0.32445-0.39524,0.99893-1.79139,0.23597-6.22953   c-0.08455-0.4975,0.05703-1.00876,0.38935-1.39024c3.83643-4.41455,5.9444-8.34537,6.09778-11.36575   c0.02163-0.45227,0.22614-0.87504,0.56435-1.1759c2.29085-2.02932,3.93279-4.15696,4.88255-6.32294   c0.37362-0.85243,1.36861-1.24079,2.21809-0.86521c0.85145,0.37263,1.23883,1.36566,0.86521,2.21809   c-1.07168,2.44619-2.82964,4.8098-5.22667,7.0328c-0.41098,3.52082-2.54255,7.57946-6.34555,12.08741   c0.58795,3.94851,0.23793,6.55202-1.08545,8.15463c-0.83375,1.01072-2.03128,1.55935-3.46282,1.58688   C27.98919,61.87362,27.97935,61.87362,27.96756,61.87362z"></path><path d="M38.35601,60.44799c-0.16124,0-0.32642-0.0236-0.48767-0.07472c-0.89077-0.2694-1.39417-1.20933-1.12281-2.09814   c3.23472-10.67554,4.3005-15.47944,4.62495-17.62871c0.13765-0.9183,0.96943-1.55148,1.91723-1.41383   c0.91831,0.13863,1.55149,0.99598,1.41384,1.91526c-0.48963,3.24062-2.12567,9.50161-4.73507,18.10261   C39.74625,59.97802,39.07964,60.44799,38.35601,60.44799z"></path><path d="M44.40463,8.62077c-0.86914,0-1.60654-0.66956-1.67733-1.55148c-0.17107-2.165,0.32446-3.88559,1.4748-5.1136   c1.25063-1.33321,3.21702-1.99785,5.82249-1.95361c0.9301,0.01278,1.6734,0.77771,1.65963,1.70683   c-0.0118,0.92224-0.76493,1.66062-1.68323,1.66062c-0.06096-0.00492-0.12192-0.00197-0.18484-0.00197   c-1.09528,0-2.47372,0.16321-3.15606,0.89078c-0.47587,0.50733-0.66857,1.36369-0.57418,2.54549   c0.07275,0.92715-0.61942,1.73731-1.54559,1.81105C44.49508,8.6188,44.44986,8.62077,44.40463,8.62077z"></path><path d="M37.61468,25.0018c-0.20844,0-0.42081-0.03933-0.62728-0.12192c-8.59117-3.44807-14.57097-10.78664-17.77029-21.8122   c-0.14748-0.5034-0.04916-1.0471,0.26153-1.46889c0.31266-0.42277,0.80229-0.67546,1.32732-0.68332   c0.17698-0.00295,0.35592-0.00492,0.53289-0.00492c11.15731,0,18.66696,5.74875,22.33035,17.09483   c0.28513,0.88488-0.20057,1.83366-1.08545,2.11977s-1.83464-0.20156-2.11977-1.08545   C37.46326,9.74555,31.78629,4.91707,23.14793,4.33797c3.02628,8.8527,7.97962,14.56113,15.09403,17.41732   c0.86325,0.34608,1.28209,1.32633,0.936,2.18958C38.91249,24.60262,38.28128,25.0018,37.61468,25.0018z"></path><path d="M18.72158,49.20219c-0.40114,0-0.79442-0.14355-1.10511-0.41294c-0.42867-0.37165-0.63908-0.936-0.56239-1.49839   c1.51216-11.06489,7.75348-18.45951,18.55488-21.97836c0.88488-0.28709,1.83268,0.19467,2.12174,1.07857   c0.28906,0.88488-0.19467,1.83464-1.07955,2.12272c-8.69735,2.83455-13.88076,8.26475-15.77636,16.558   c3.05381-1.08447,5.55112-2.42063,7.44869-3.98784c0.71183-0.5909,1.77565-0.49553,2.3695,0.22515   c0.59188,0.71675,0.4916,1.7786-0.22614,2.37049c-2.77458,2.29281-6.57168,4.13041-11.28906,5.45969   C19.02834,49.18253,18.87496,49.20219,18.72158,49.20219z"></path><path d="M52.41178,100c-0.7492,0-1.59081-0.03933-2.54648-0.11798c-0.92813-0.07472-1.61834-0.88685-1.54165-1.81302   c0.07473-0.92617,0.90651-1.62621,1.81301-1.54165c2.13747,0.17304,3.569,0.13568,4.50107-0.11798   c0.88684-0.2458,1.82088,0.28316,2.06668,1.1818c0.24384,0.89668-0.28513,1.82285-1.1818,2.06667   C54.681,99.88792,53.6801,100,52.41178,100z"></path><path d="M52.12665,62.17251c-0.73543,0-1.48069-0.0236-2.23579-0.07472c-0.92813-0.06096-1.63014-0.86128-1.56918-1.78942   s0.88291-1.65963,1.78942-1.56918c4.03307,0.2576,7.69646-0.25367,10.90758-1.53969   c0.85931-0.34608,1.84251,0.07473,2.18859,0.93797c0.34608,0.86325-0.07472,1.84251-0.93797,2.18859   C59.19976,61.55507,55.79594,62.17251,52.12665,62.17251z"></path><path d="M55.07821,99.71684c-0.87308,0-1.61047-0.67251-1.67733-1.55739c-0.18287-2.44422-0.41097-4.34573-0.71773-5.9798   c-0.03933-0.2163-0.03736-0.43654,0.0059-0.65087c1.41187-6.84502,1.49643-11.92027,0.25367-15.0842   c-0.15141-0.38541-0.15535-0.81409-0.00983-1.20343c3.39596-9.1044,3.47461-12.95656,2.94369-14.58473   c-0.28906-0.88488,0.19467-1.83464,1.07758-2.12371c0.89471-0.28906,1.83464,0.19468,2.1237,1.07758   c1.01859,3.1246,0.13765,8.28834-2.77458,16.2247c1.25456,3.74991,1.17197,9.01198-0.24973,16.05166   c0.29889,1.68324,0.52503,3.60833,0.70594,6.0211c0.06882,0.92814-0.62531,1.73632-1.55345,1.80515   C55.16276,99.71684,55.12147,99.71684,55.07821,99.71684z"></path><path d="M56.34259,34.14946c-1.39417,0-2.71165-0.35592-3.35663-0.53093c-0.89864-0.24285-1.42957-1.16705-1.1877-2.06471   c0.2458-0.89766,1.1759-1.43153,2.06471-1.18574c2.4108,0.64989,3.40579,0.38246,3.60046,0.15141   c0.03933-0.04621,0.91437-1.21326-1.83858-6.79978c-0.41098-0.83473-0.06882-1.84349,0.76689-2.25447   c0.83179-0.41098,1.84251-0.06784,2.25349,0.76591c2.58974,5.25617,3.02824,8.47318,1.41777,10.42876   C59.11324,33.81615,57.69154,34.14946,56.34259,34.14946z"></path><path d="M56.96594,42.58135c-0.05899,0-0.11995-0.00295-0.17894-0.00983c-0.92617-0.09832-1.59474-0.92715-1.49839-1.85136   c0.41884-3.94458,0.54469-6.56185,0.39721-8.23722c-0.08259-0.92617,0.60368-1.74321,1.52985-1.82481   c0.92224-0.06882,1.74419,0.60368,1.82481,1.52985c0.16911,1.92215,0.04523,4.6633-0.40114,8.88613   C58.54692,41.93932,57.81542,42.58135,56.96594,42.58135z"></path><path d="M49.99902,17.92377c-0.89274,0-1.63604-0.702-1.6793-1.60261c-0.04523-0.92912,0.67054-1.71863,1.60064-1.76385   c0.92027-0.04424,3.71845-0.17992,3.93279-7.66893c0.02557-0.92912,0.80032-1.60851,1.73043-1.63506   c0.9301,0.02655,1.6616,0.8013,1.63604,1.73141c-0.24973,8.76618-4.01931,10.78566-7.138,10.93707   C50.05407,17.92279,50.02654,17.92377,49.99902,17.92377z"></path><path d="M72.03244,61.87362c-0.0118,0-0.02163,0-0.03343,0c-1.44136-0.0295-2.64873-0.58401-3.49034-1.60458   c-1.31945-1.59474-1.6852-4.2651-1.11298-8.14283c-3.76564-4.52172-5.87754-8.57445-6.28852-12.0707   c-2.42456-2.20236-4.20218-4.5699-5.28566-7.04362c-0.37362-0.85243,0.01376-1.84546,0.86521-2.21809   c0.85145-0.37558,1.84447,0.01278,2.21809,0.86521c0.9596,2.18564,2.6153,4.30935,4.92581,6.31114   c0.34609,0.29987,0.55452,0.72953,0.57812,1.1877c0.15141,3.0017,2.24365,6.93547,6.04862,11.37558   c0.32642,0.37952,0.46603,0.88684,0.38148,1.38041c-0.75706,4.39882-0.06686,5.80872,0.26546,6.21183   c0.13568,0.16321,0.33625,0.33232,0.79836,0.37361c0.936-0.20647,1.52199-0.56042,1.74419-1.05595   c0.23596-0.52699,0.51126-2.21022-2.03129-6.4301c-0.11995-0.20057-0.19664-0.42278-0.22614-0.65284   c-0.58598-4.53253-3.02431-9.57633-7.24812-14.99178c-0.17894-0.2281-0.29496-0.49946-0.33821-0.78656   c-0.92814-6.20888-2.97515-13.79326-7.45459-14.83938c-2.42653-0.13076-4.14712-1.44628-5.11852-3.9141   c-0.34019-0.86521,0.08455-1.84251,0.94977-2.18368c0.85931-0.34019,1.84251,0.08456,2.18466,0.95075   c0.57025,1.44825,1.28405,1.75697,2.25348,1.78745c0.09636,0.00295,0.19074,0.01475,0.28513,0.03343   c5.19717,1.06677,8.52431,6.70441,10.16428,17.23149c4.39095,5.70844,6.88434,10.92724,7.61387,15.92778   c2.35967,4.01144,3.02628,7.03772,2.03915,9.24401c-0.71381,1.59278-2.18466,2.6094-4.37523,3.02431   C72.24284,61.86379,72.13666,61.87362,72.03244,61.87362z"></path><path d="M61.64399,60.44799c-0.72363,0-1.39024-0.46997-1.61048-1.19753c-2.83357-9.3443-4.33982-15.10583-4.739-18.13309   c-0.12192-0.92224,0.52699-1.76778,1.44923-1.8897c0.92617-0.11504,1.76779,0.52798,1.8897,1.44923   c0.36968,2.80211,1.88184,8.55872,4.62102,17.59823c0.27136,0.88881-0.23203,1.82874-1.12281,2.09814   C61.97041,60.42439,61.80523,60.44799,61.64399,60.44799z"></path><path d="M55.53834,8.62077c-0.04523,0-0.09045-0.00197-0.13568-0.0059c-0.92617-0.07374-1.61834-0.88389-1.54559-1.81105   c0.09636-1.1995-0.09439-2.06176-0.56632-2.56614c-0.702-0.74821-2.18859-0.88094-3.26618-0.86915   c-0.00787,0.00098-0.01573,0.00098-0.0236,0.00098c-0.9183,0-1.67143-0.73838-1.68323-1.66062   c-0.01376-0.92912,0.72953-1.69405,1.65963-1.70683c2.6448-0.03834,4.5345,0.61548,5.7694,1.93296   c1.1464,1.22408,1.64194,2.95155,1.46889,5.13425C57.14488,7.95121,56.40749,8.62077,55.53834,8.62077z"></path><path d="M62.38532,25.0018c-0.66464,0-1.29585-0.3982-1.56131-1.053c-0.34805-0.86226,0.06882-1.84349,0.9301-2.19253   c7.06328-2.8552,12.01465-8.56462,15.08616-17.41732C68.20781,4.921,62.53476,9.74948,59.53602,19.0397   c-0.28709,0.88389-1.2408,1.37057-2.11977,1.08545c-0.88488-0.28611-1.37057-1.23489-1.08545-2.11977   C60.05121,6.47937,67.73194,0.71882,79.19404,0.91546c0.52503,0.00787,1.01859,0.26251,1.32928,0.68627   c0.31265,0.42376,0.40704,0.96943,0.2576,1.47381c-3.25635,11.01966-9.23418,18.35529-17.76439,21.80336   C62.81006,24.96247,62.59572,25.0018,62.38532,25.0018z"></path><path d="M81.27842,49.20219c-0.15141,0-0.30283-0.01966-0.45227-0.06096c-4.68788-1.30568-8.48892-3.14328-11.29299-5.46165   c-0.71774-0.59188-0.81802-1.65374-0.22614-2.37049c0.59188-0.72068,1.65767-0.81605,2.3695-0.22515   c1.91724,1.58393,4.41652,2.92206,7.45066,3.99472c-1.8956-8.30112-7.09671-13.73328-15.83339-16.5639   c-0.88488-0.28611-1.36861-1.23588-1.08348-2.12075c0.28906-0.88389,1.22703-1.37057,2.12173-1.0825   c10.84072,3.51198,17.10368,10.90758,18.61387,21.97935c0.07669,0.56141-0.13371,1.12478-0.56042,1.49643   C82.07481,49.05864,81.67956,49.20219,81.27842,49.20219z"></path><path d="M50.00098,99.88792c-0.9301,0-1.68323-0.75313-1.68323-1.68324V60.41849c0-0.9301,0.75313-1.68323,1.68323-1.68323   s1.68323,0.75313,1.68323,1.68323v37.78619C51.68421,99.13479,50.93108,99.88792,50.00098,99.88792z"></path></g></svg>