<svg height='100px' width='100px'  fill="#000000" xmlns="http://www.w3.org/2000/svg" xmlns:xlink="http://www.w3.org/1999/xlink" version="1.1" x="0px" y="0px" viewBox="0 0 96 96" style="enable-background:new 0 0 96 96;" xml:space="preserve"><g><path d="M49,5.2l36.4,18.1c0.9,0.4,1.3,1.3,1.3,2.2c-1,16.2-5.2,29.4-11.7,40.1c-6.5,10.7-15.4,18.9-25.9,25.1   c-0.7,0.5-1.6,0.4-2.4,0C36.3,84.4,27.5,76.2,21,65.6C14.5,54.9,10.3,41.7,9.3,25.5c-0.1-1,0.5-1.8,1.3-2.2L47,5.2   C47.6,4.9,48.4,5,49,5.2L49,5.2z M48,33.7c2.7,0,5,1.1,6.8,2.8c1.7,1.7,2.8,4.1,2.8,6.8c0,1.9-0.6,3.7-1.5,5.2   c-0.6,1-1.4,1.8-2.3,2.5l2.7,7.9c0.4,1.2-0.2,2.4-1.4,2.9c-0.3,0.1-0.5,0.1-0.8,0.1v0H41.7c-1.3,0-2.3-1-2.3-2.3   c0-0.3,0.1-0.7,0.2-0.9l2.7-7.7c-0.9-0.7-1.7-1.5-2.3-2.5c-1-1.5-1.5-3.3-1.5-5.2c0-2.7,1.1-5,2.8-6.8C43,34.8,45.3,33.7,48,33.7   L48,33.7z M51.6,39.7c-0.9-0.9-2.2-1.5-3.6-1.5c-1.4,0-2.6,0.6-3.5,1.5c-0.9,0.9-1.5,2.2-1.5,3.6c0,1,0.3,2,0.8,2.7   c0.5,0.8,1.3,1.5,2.2,1.9c1.1,0.5,1.6,1.7,1.2,2.8l-2.3,6.6h6.3l-2.3-6.6c-0.4-1.1,0.1-2.3,1.2-2.8c0.9-0.4,1.6-1,2.2-1.9   c0.5-0.8,0.8-1.7,0.8-2.7C53,41.9,52.5,40.6,51.6,39.7L51.6,39.7z M82.1,26.7L48,9.8L13.9,26.7c1.1,14.8,5,26.8,10.9,36.5   c5.9,9.6,13.8,17.1,23.2,22.9c9.4-5.8,17.3-13.2,23.2-22.9C77.1,53.5,81,41.5,82.1,26.7L82.1,26.7z"></path></g></svg>