<svg height='100px' width='100px'  fill="#000000" xmlns="http://www.w3.org/2000/svg" xmlns:xlink="http://www.w3.org/1999/xlink" version="1.1" x="0px" y="0px" viewBox="0 0 512 512" style="enable-background:new 0 0 512 512;" xml:space="preserve"><path d="M461.631,332.288c-3.857-10.998-11.77-19.861-22.302-24.921c-19.376-9.318-42.317-2.9-54.429,14.051l-36.656-17.609  l13.829-23.875c1.328-2.279,1.328-5.078,0-7.356l-27.507-47.479l46.451-26.267c8.434,10.245,20.717,16.171,33.553,16.171  c7.302,0,14.694-1.83,21.476-5.67c10.155-5.741,17.475-15.107,20.561-26.338c3.104-11.214,1.633-22.947-4.127-33.066  c-11.877-20.83-38.557-28.204-59.53-16.399c-10.155,5.759-17.457,15.107-20.561,26.338c-2.436,8.798-1.958,17.899,1.101,26.31  l-46.303,26.183l-18.114-31.268c-1.31-2.279-3.732-3.678-6.351-3.678h-45.644v-58.802c20.575-3.512,36.332-21.309,36.332-42.82  c0-24.024-19.61-43.58-43.688-43.58s-43.67,19.556-43.67,43.58c0,21.511,15.743,39.307,36.314,42.82v58.802H196.74  c-2.619,0-5.042,1.399-6.351,3.678l-21.198,36.591l-15.831-7.664c2.494-8.596,2.368-17.717-0.648-26.343  c-3.84-10.998-11.752-19.844-22.284-24.903c-21.656-10.424-47.833-1.31-58.31,20.328c-5.06,10.478-5.723,22.284-1.884,33.264  c3.84,10.998,11.752,19.843,22.284,24.903c6.082,2.924,12.523,4.306,18.875,4.306c13.851,0,26.935-6.901,35.25-18.473l15.16,7.338  l-24.412,42.138c-1.328,2.279-1.328,5.078,0,7.356l16.623,28.698l-28.565,15.058c-13.203-16.232-36.595-21.136-55.375-10.545  c-10.155,5.759-17.457,15.107-20.561,26.338c-3.104,11.214-1.633,22.947,4.127,33.067c8.038,14.12,22.84,22.05,38.054,22.05  c7.302,0,14.694-1.83,21.476-5.652c10.155-5.759,17.457-15.107,20.561-26.338c2.419-8.738,1.976-17.777-1.026-26.142l28.675-15.116  l29.011,50.085c1.31,2.279,3.732,3.678,6.351,3.678h45.626v18.271c-20.571,3.513-36.314,21.309-36.314,42.82  c0,24.024,19.592,43.58,43.67,43.58s43.688-19.556,43.688-43.58c0-21.511-15.757-39.308-36.332-42.82v-18.271h45.644  c2.619,0,5.042-1.399,6.351-3.678l31.788-54.882l37.621,18.073c-2.491,8.593-2.362,17.711,0.653,26.332  c3.84,10.998,11.752,19.844,22.284,24.903c6.082,2.924,12.523,4.306,18.875,4.306c16.255,0,31.9-9.078,39.436-24.634  C464.789,355.074,465.453,343.268,461.631,332.288z M386.563,163.78c2.045-7.446,6.89-13.636,13.636-17.439  c4.503-2.548,9.401-3.768,14.246-3.768c10.101,0,19.933,5.275,25.262,14.64c3.804,6.692,4.79,14.461,2.745,21.871  c-2.063,7.446-6.908,13.654-13.654,17.475c-13.894,7.87-31.6,3.003-39.485-10.859c-0.002-0.004-0.002-0.009-0.004-0.013  c-0.006-0.009-0.015-0.015-0.02-0.024C385.47,178.973,384.5,171.187,386.563,163.78z M137.568,210.554  c-6.925,14.353-24.257,20.4-38.7,13.474c-6.961-3.355-12.218-9.222-14.766-16.506c-2.548-7.266-2.099-15.089,1.256-22.032  c4.988-10.316,15.376-16.327,26.159-16.327c4.216,0,8.504,0.915,12.559,2.853c6.979,3.355,12.218,9.222,14.766,16.506  C141.372,195.806,140.924,203.61,137.568,210.554z M119.555,358.698c-2.045,7.446-6.89,13.636-13.636,17.457  c-13.905,7.858-31.631,2.996-39.508-10.891c-3.804-6.692-4.79-14.461-2.745-21.871c2.063-7.446,6.908-13.636,13.654-17.439  c4.503-2.548,9.401-3.768,14.246-3.768c10.101,0,19.933,5.257,25.262,14.622C120.649,343.502,121.618,351.288,119.555,358.698z   M298.487,192.128l15.914,27.464l-25.449,14.39c-8.627-7.96-19.645-13.206-31.875-14.775v-27.08H298.487z M220.764,75.794  c0-15.914,12.99-28.868,28.958-28.868c15.986,0,28.976,12.954,28.976,28.868s-12.99,28.85-28.976,28.85  C233.754,104.644,220.764,91.708,220.764,75.794z M200.974,192.128h41.391v27.081c-13.471,1.728-25.506,7.891-34.448,17.224  l-25.47-12.33L200.974,192.128z M152.227,276.256l22.83-39.399l24.133,11.682c-4.581,8.267-7.419,17.623-7.419,27.717  c0,4.051,0.438,8.001,1.238,11.82l-25.995,13.703L152.227,276.256z M200.974,360.403l-26.593-45.905l23.726-12.506  c8.471,16.819,24.807,28.833,44.259,31.331v27.081H200.974z M278.698,436.206c0,15.914-12.99,28.868-28.976,28.868  c-15.968,0-28.958-12.954-28.958-28.868c0-15.914,12.99-28.85,28.958-28.85C265.708,407.356,278.698,420.292,278.698,436.206z   M249.722,319.352c-23.844,0-43.239-19.323-43.239-43.096c0-23.755,19.395-43.078,43.239-43.078  c23.862,0,43.257,19.323,43.257,43.078C292.979,300.029,273.584,319.352,249.722,319.352z M298.487,360.403h-41.409v-27.081  c20.829-2.673,38.294-16.165,46.131-34.854l24.375,11.709L298.487,360.403z M334.967,297.432l-28.057-13.479  c0.344-2.543,0.782-5.062,0.782-7.697c0-11.349-3.417-21.87-9.11-30.809l23.2-13.119l25.454,43.928L334.967,297.432z   M446.488,359.147c-6.925,14.353-24.293,20.382-38.718,13.474c-6.979-3.355-12.218-9.222-14.766-16.506  c-2.53-7.284-2.081-15.089,1.274-22.032c6.943-14.353,24.347-20.346,38.682-13.474c6.997,3.373,12.236,9.24,14.784,16.524  C450.292,344.399,449.843,352.221,446.488,359.147z"></path></svg>