<svg height='100px' width='100px'  fill="#000000" xmlns="http://www.w3.org/2000/svg" xmlns:xlink="http://www.w3.org/1999/xlink" version="1.1" x="0px" y="0px" viewBox="0 0 100 100" enable-background="new 0 0 100 100" xml:space="preserve"><g><rect y="-36" width="100" height="30"></rect><text transform="matrix(1 0 0 1 66 -19.5)" fill="#000000" font-family="'Helvetica'" font-size="2.4">http://thenounproject.com</text><text transform="matrix(1 0 0 1 7.166 -24.5)"><tspan x="0" y="0" fill="#000000" font-family="'Helvetica-Bold'" font-size="6.1578">The Noun Project</tspan><tspan x="1.12" y="4.8" fill="#000000" font-family="'Helvetica-Bold'" font-size="4">Icon Template</tspan></text><line fill="#000000" stroke="#000000" stroke-miterlimit="10" x1="8" y1="-14.5" x2="18" y2="-14.5"></line></g><g><g><g><path d="M19.518,34.914c-7.798,7.794-7.798,20.484,0.002,28.281c7.799,7.799,20.484,7.799,28.283,0.002l0.732-0.734l-4.318-4.317     l-0.735,0.733c-5.413,5.413-14.228,5.413-19.646-0.003c-5.413-5.415-5.413-14.227,0-19.643c5.416-5.416,14.23-5.416,19.646,0     l14.835,14.835l4.318-4.316L47.8,34.914C40,27.118,27.314,27.118,19.518,34.914z"></path></g><g><g><path d="M53.361,34.914c-0.002,0.002-0.692,0.695-0.692,0.695l4.327,4.311l0.692-0.692c2.618-2.619,6.105-4.065,9.815-4.065      c3.711,0,7.196,1.446,9.821,4.069c2.626,2.625,4.072,6.113,4.072,9.824c0,3.711-1.446,7.198-4.069,9.822      c-5.413,5.413-14.226,5.413-19.644,0L41.725,42.92l-4.32,4.317l15.961,15.96c7.796,7.797,20.486,7.797,28.283,0      c3.773-3.779,5.856-8.797,5.856-14.14c0-5.343-2.083-10.367-5.862-14.141c-3.773-3.777-8.799-5.858-14.14-5.858      S57.14,31.139,53.361,34.914z"></path></g></g></g></g></svg>