<svg height='100px' width='100px'  fill="#000000" xmlns="http://www.w3.org/2000/svg" xmlns:xlink="http://www.w3.org/1999/xlink" version="1.1" x="0px" y="0px" viewBox="0 0 100 100" enable-background="new 0 0 100 100" xml:space="preserve"><path d="M50.262,52.438c2.263,0,4.104-1.841,4.104-4.104c0-2.262-1.841-4.103-4.104-4.103s-4.104,1.841-4.104,4.103  C46.158,50.597,47.999,52.438,50.262,52.438z M50.262,46.497c1.014,0,1.838,0.824,1.838,1.837c0,1.014-0.824,1.838-1.838,1.838  s-1.838-0.825-1.838-1.838C48.424,47.321,49.248,46.497,50.262,46.497z M67.352,29.788c-2.263,0-4.104,1.841-4.104,4.104  s1.841,4.104,4.104,4.104s4.104-1.841,4.104-4.104S69.614,29.788,67.352,29.788z M67.352,35.729c-1.014,0-1.838-0.824-1.838-1.838  s0.824-1.838,1.838-1.838s1.838,0.824,1.838,1.838S68.365,35.729,67.352,35.729z M66.02,44.231c-2.263,0-4.104,1.841-4.104,4.103  c0,2.263,1.841,4.104,4.104,4.104s4.104-1.841,4.104-4.104C70.123,46.072,68.282,44.231,66.02,44.231z M66.02,50.173  c-1.014,0-1.838-0.825-1.838-1.838c0-1.013,0.824-1.837,1.838-1.837s1.838,0.824,1.838,1.837  C67.857,49.348,67.033,50.173,66.02,50.173z M53.232,61.16c-2.263,0-4.104,1.841-4.104,4.104s1.841,4.104,4.104,4.104  c2.262,0,4.102-1.841,4.102-4.104S55.494,61.16,53.232,61.16z M53.232,67.101c-1.014,0-1.838-0.824-1.838-1.838  s0.824-1.838,1.838-1.838c1.013,0,1.836,0.824,1.836,1.838S54.245,67.101,53.232,67.101z M34.717,52.476  c0-2.262-1.841-4.103-4.104-4.103c-2.262,0-4.102,1.841-4.102,4.103c0,2.263,1.84,4.104,4.102,4.104  C32.876,56.58,34.717,54.738,34.717,52.476z M28.777,52.476c0-1.013,0.823-1.837,1.836-1.837c1.014,0,1.838,0.824,1.838,1.837  c0,1.014-0.824,1.838-1.838,1.838C29.601,54.314,28.777,53.489,28.777,52.476z M38.516,39.383c1.761,0,3.254-1.122,3.834-2.685  c0.01-0.029,0.029-0.053,0.037-0.083c0.004-0.015-0.001-0.03,0.003-0.045c0.136-0.408,0.228-0.837,0.228-1.291  c0-0.976-0.356-1.861-0.927-2.566c-0.002-0.002-0.001-0.005-0.003-0.007c-0.01-0.015-0.024-0.023-0.034-0.038  c-0.753-0.904-1.872-1.492-3.138-1.492c-2.263,0-4.104,1.841-4.104,4.104S36.253,39.383,38.516,39.383z M38.516,33.441  c1.013,0,1.836,0.824,1.836,1.838s-0.823,1.838-1.836,1.838c-1.014,0-1.838-0.825-1.838-1.838S37.502,33.441,38.516,33.441z   M31.308,39.125c-0.4-0.48-0.341-1.2,0.14-1.6c0.479-0.4,1.2-0.34,1.6,0.14c0.4,0.48,0.34,1.19-0.14,1.6  c-0.21,0.17-0.47,0.26-0.73,0.26C31.857,39.525,31.537,39.385,31.308,39.125z M27.707,45.655c0-0.63,0.5-1.14,1.12-1.15  c0.63-0.01,1.14,0.49,1.15,1.12c0.01,0.62-0.5,1.14-1.12,1.15c-0.011,0-0.011,0-0.011,0C28.228,46.775,27.717,46.275,27.707,45.655z   M28.647,41.155c0.26-0.57,0.93-0.82,1.5-0.55c0.569,0.26,0.819,0.93,0.55,1.5c-0.19,0.41-0.601,0.66-1.03,0.66  c-0.16,0-0.32-0.04-0.47-0.11C28.627,42.395,28.377,41.725,28.647,41.155z M41.615,55.995c-0.18,0.09-0.359,0.14-0.55,0.14  c-0.399,0-0.79-0.22-0.99-0.59c-0.3-0.55-0.1-1.24,0.45-1.54c0.54-0.3,1.23-0.1,1.53,0.45  C42.355,55.005,42.155,55.695,41.615,55.995z M38.377,43.685c-0.62,0-1.12-0.48-1.13-1.1c-0.02-0.63,0.48-1.15,1.1-1.16  c0.631-0.02,1.15,0.48,1.16,1.1c0,0,0,0,0,0.01c0.021,0.62-0.479,1.14-1.1,1.15C38.397,43.685,38.387,43.685,38.377,43.685z   M46.417,62.325c-0.51-0.36-0.63-1.07-0.27-1.58c0.37-0.51,1.069-0.63,1.58-0.27c0.51,0.36,0.64,1.07,0.27,1.58  c-0.22,0.31-0.57,0.48-0.92,0.48C46.847,62.535,46.617,62.465,46.417,62.325z M40.077,52.125c-0.12,0.03-0.23,0.05-0.35,0.05  c-0.48,0-0.92-0.31-1.08-0.79c-0.19-0.59,0.14-1.23,0.739-1.42c0.591-0.19,1.23,0.13,1.421,0.73  C40.997,51.285,40.677,51.925,40.077,52.125z M37.627,47.025h0.01c-0.1-0.62,0.32-1.2,0.94-1.3c0.62-0.09,1.2,0.33,1.29,0.95  c0,0,0,0,0.01,0c0.09,0.62-0.34,1.2-0.95,1.29c-0.06,0.01-0.119,0.02-0.18,0.02C38.197,47.985,37.717,47.585,37.627,47.025z   M44.728,57.775c0.409,0.47,0.369,1.19-0.101,1.6c-0.22,0.19-0.479,0.28-0.75,0.28c-0.31,0-0.63-0.13-0.85-0.38  c-0.41-0.47-0.37-1.19,0.1-1.6S44.317,57.305,44.728,57.775z M39.188,70.175c-0.141,0.5-0.601,0.83-1.091,0.83  c-0.1,0-0.21-0.01-0.31-0.04c-0.6-0.17-0.95-0.79-0.78-1.4c0.17-0.6,0.79-0.95,1.391-0.78  C39.007,68.955,39.357,69.575,39.188,70.175z M43.897,70.435c0.01,0.62-0.48,1.14-1.11,1.15c-0.01,0-0.01,0-0.02,0  c-0.62,0-1.12-0.49-1.131-1.11c-0.02-0.62,0.48-1.14,1.11-1.15C43.367,69.305,43.887,69.805,43.897,70.435z M34.478,66.965  c0.51,0.35,0.64,1.06,0.279,1.57c-0.22,0.32-0.569,0.49-0.93,0.49c-0.22,0-0.45-0.07-0.64-0.2c-0.521-0.36-0.641-1.06-0.29-1.58  C33.257,66.735,33.967,66.605,34.478,66.965z M48.507,69.405c0.17,0.6-0.17,1.23-0.77,1.41c-0.11,0.03-0.21,0.05-0.32,0.05  c-0.49,0-0.939-0.32-1.09-0.82c-0.17-0.6,0.17-1.23,0.77-1.4C47.697,68.465,48.327,68.805,48.507,69.405z M29.147,61.235  c-0.04,0-0.08,0-0.12,0c-0.569,0-1.068-0.429-1.119-1.018c-0.065-0.627,0.392-1.173,1.009-1.242c0.62-0.06,1.18,0.39,1.24,1.02  C30.217,60.615,29.768,61.175,29.147,61.235z M31.518,63.925c0.34,0.52,0.18,1.23-0.351,1.56c-0.189,0.12-0.399,0.17-0.6,0.17  c-0.38,0-0.75-0.18-0.96-0.52c-0.33-0.53-0.181-1.23,0.35-1.57C30.487,63.235,31.188,63.395,31.518,63.925z M27.907,60.215  c0,0.001,0.001,0.001,0.001,0.002c0,0.003-0.001,0.005-0.001,0.008V60.215z M55.237,54.255c0.25,0.58-0.021,1.24-0.601,1.49  c-0.14,0.06-0.29,0.09-0.439,0.09c-0.44,0-0.86-0.26-1.04-0.69c-0.25-0.58,0.02-1.24,0.6-1.49  C54.327,53.415,54.987,53.675,55.237,54.255z M55.107,57.975c0.63,0.03,1.109,0.57,1.08,1.19c0,0,0,0-0.011,0  c-0.029,0.61-0.529,1.07-1.13,1.07c-0.02,0-0.04,0-0.06,0c-0.62-0.03-1.101-0.56-1.07-1.19  C53.947,58.425,54.487,57.945,55.107,57.975z M52.487,29.565c-0.01-0.63,0.49-1.14,1.12-1.15c0.62-0.01,1.14,0.49,1.149,1.11  c0.011,0.63-0.489,1.14-1.12,1.16h-0.01C53.007,30.685,52.497,30.185,52.487,29.565z M48.007,30.255  c-0.12-0.61,0.28-1.21,0.891-1.33c0.62-0.12,1.22,0.27,1.34,0.89c0.12,0.61-0.28,1.21-0.891,1.33c-0.079,0.02-0.149,0.02-0.22,0.02  C48.597,31.165,48.117,30.795,48.007,30.255z M59.247,30.105c-0.1,0.55-0.58,0.94-1.11,0.94c-0.069,0-0.14-0.01-0.21-0.02  c-0.609-0.11-1.02-0.7-0.909-1.32c0.109-0.61,0.699-1.02,1.319-0.91C58.947,28.905,59.357,29.495,59.247,30.105z M61.427,30.745  c0.23-0.59,0.9-0.86,1.48-0.62c0.57,0.23,0.85,0.89,0.62,1.47c-0.181,0.44-0.601,0.71-1.05,0.71c-0.141,0-0.29-0.03-0.431-0.09  C61.467,31.985,61.188,31.315,61.427,30.745z M43.728,31.705c-0.23-0.58,0.06-1.24,0.64-1.46c0.59-0.23,1.24,0.06,1.47,0.65  c0.221,0.58-0.069,1.24-0.649,1.46c-0.13,0.05-0.271,0.08-0.41,0.08C44.327,32.435,43.897,32.155,43.728,31.705z M45.607,54.415  c-0.2,0.14-0.44,0.22-0.67,0.22c-0.351,0-0.69-0.16-0.91-0.46c-0.38-0.51-0.271-1.22,0.229-1.59h0.011  c0.5-0.37,1.21-0.26,1.579,0.24C46.217,53.325,46.107,54.035,45.607,54.415z M36.257,56.355c-0.04,0-0.08-0.01-0.12-0.01  c-0.63-0.07-1.069-0.63-1-1.25c0.07-0.63,0.631-1.07,1.25-1c0.62,0.07,1.07,0.63,1,1.25C37.317,55.925,36.827,56.355,36.257,56.355z   M57.407,43.855c0.16,0.6-0.2,1.22-0.8,1.38c-0.101,0.03-0.2,0.04-0.3,0.04c-0.5,0-0.95-0.33-1.091-0.84  c-0.159-0.61,0.2-1.23,0.801-1.39c0,0,0,0,0.01,0.01C56.627,42.885,57.247,43.255,57.407,43.855z M61.907,44.245  c-0.12,0.53-0.59,0.89-1.11,0.89c-0.08,0-0.16-0.01-0.25-0.03c-0.609-0.14-0.989-0.74-0.85-1.35c0.13-0.61,0.74-1,1.35-0.86  C61.657,43.035,62.037,43.635,61.907,44.245z M47.817,41.575c-0.33-0.54-0.16-1.24,0.38-1.56c0.53-0.33,1.229-0.16,1.55,0.37  c0.33,0.53,0.16,1.23-0.37,1.56c-0.189,0.11-0.39,0.16-0.59,0.16C48.407,42.105,48.027,41.915,47.817,41.575z M46.067,36.925  c0.55,0.31,0.75,1,0.439,1.54c-0.21,0.38-0.59,0.59-0.989,0.59c-0.19,0-0.37-0.05-0.551-0.15c-0.55-0.3-0.739-0.99-0.439-1.54  C44.837,36.825,45.527,36.625,46.067,36.925z"></path></svg>