<?xml version="1.0" encoding="utf-8"?>
<!-- Generator: Adobe Illustrator 26.5.1, SVG Export Plug-In . SVG Version: 6.00 Build 0)  -->
<svg version="1.1" id="Layer_1" xmlns="http://www.w3.org/2000/svg" xmlns:xlink="http://www.w3.org/1999/xlink" x="0px" y="0px"
	 viewBox="0 0 48 48" style="enable-background:new 0 0 48 48;" xml:space="preserve">
<style type="text/css">
	.st0{fill:#FFFFFF;}
</style>
<path class="st0" d="M16.5,33.6l7.5-7.5l7.5,7.5l2.1-2.1L26.1,24l7.5-7.5l-2.1-2.1L24,21.9l-7.5-7.5l-2.1,2.1l7.5,7.5l-7.5,7.5
	L16.5,33.6z M24,44c-2.7,0-5.3-0.5-7.8-1.6c-2.4-1-4.6-2.5-6.4-4.3s-3.2-3.9-4.3-6.4S4,26.7,4,24c0-2.8,0.5-5.4,1.6-7.8
	s2.5-4.6,4.3-6.4s3.9-3.2,6.4-4.3S21.3,4,24,4c2.8,0,5.4,0.5,7.8,1.6s4.6,2.5,6.4,4.3s3.2,3.9,4.3,6.4c1.1,2.4,1.6,5,1.6,7.8
	c0,2.7-0.5,5.3-1.6,7.8c-1,2.4-2.5,4.6-4.3,6.4s-3.9,3.2-6.4,4.3C29.4,43.5,26.8,44,24,44z M24,41c4.7,0,8.8-1.7,12-5
	c3.3-3.3,5-7.3,5-12c0-4.7-1.6-8.8-5-12.1C32.8,8.6,28.7,7,24,7c-4.7,0-8.7,1.6-12,4.9S7,19.3,7,24c0,4.7,1.7,8.7,5,12
	S19.3,41,24,41z"/>
</svg>
